<svg width="1200" height="300" viewBox="0 0 1200 300" fill="none" xmlns="http://www.w3.org/2000/svg">
<rect width="1200" height="300" fill="#357960"/>
<rect x="558.599" y="173.672" width="16.4968" height="77.5479" fill="#93642D"/>
<rect x="558.643" y="145" width="16.4968" height="77.5479" fill="#714D22"/>
<rect x="537.573" y="143.337" width="59.7026" height="59.5317" rx="29.7659" fill="#83C082"/>
<rect x="540.578" y="105.427" width="54.6358" height="54.4795" rx="27.2397" fill="#66A865"/>
<rect x="544.585" y="76" width="46.2058" height="46.0735" rx="23.0368" fill="#83C082"/>
<path d="M597.02 169.883C597.164 171.069 597.24 172.276 597.24 173.5C597.24 189.939 583.829 203.265 567.39 203.266C550.951 203.266 537.538 189.939 537.538 173.5C537.538 172.276 537.614 171.068 537.758 169.883C539.554 184.616 552.175 196.031 567.39 196.031C582.605 196.031 595.224 184.616 597.02 169.883Z" fill="#679A66"/>
<rect x="344.288" y="173.198" width="16.4968" height="77.5479" fill="#93642D"/>
<rect x="344.332" y="144.527" width="16.4968" height="77.5479" fill="#714D22"/>
<path d="M352.056 130.9L398.998 211.972H305.114L352.056 130.9Z" fill="#66A865"/>
<path d="M352.1 100.351L391.898 169.086H312.301L352.1 100.351Z" fill="#83C082"/>
<path d="M367.398 126.527H336.81L332.297 134.027H371.911L367.398 126.527Z" fill="#458244"/>
<path d="M374.188 169.027H329.984L325.779 176.027H378.429L374.188 169.027Z" fill="#458244"/>
<path d="M352.623 72.1511L384.258 126.787H320.989L352.623 72.1511Z" fill="#66A865"/>
<path d="M352.623 49L378.513 93.7141H326.734L352.623 49Z" fill="#83C082"/>
<path d="M364.891 93.5269H340.32L335.807 101.027H369.403L364.891 93.5269Z" fill="#458244"/>
<path d="M437.686 95.1511C451.157 95.1513 462.077 106.072 462.077 119.543V121.14C462.077 122.078 462.022 123.003 461.919 123.913C472.076 126.861 479.5 136.232 479.5 147.34V148.937C479.5 162.409 468.58 173.33 455.108 173.33C447.822 173.33 441.283 170.134 436.813 165.069C432.344 170.134 425.805 173.33 418.52 173.33C405.048 173.33 394.128 162.408 394.128 148.937V147.34C394.128 135.623 402.39 125.837 413.405 123.486C413.332 122.714 413.293 121.932 413.293 121.14V119.543C413.293 106.072 424.214 95.1511 437.686 95.1511Z" fill="#66A865"/>
<path d="M435.16 196.695C425.215 188.451 423.859 173.724 432.132 163.803L433.186 162.539C433.75 161.862 434.347 161.227 434.969 160.629C429.284 152.243 429.56 140.799 436.379 132.62L437.433 131.357C445.706 121.435 460.474 120.076 470.418 128.32C475.797 132.779 478.66 139.135 478.85 145.601C485.259 144.606 492.049 146.253 497.427 150.712C507.372 158.956 508.727 173.683 500.455 183.604L499.401 184.868C492.207 193.496 480.102 195.648 470.527 190.64C470.115 191.239 469.673 191.826 469.198 192.395L468.145 193.659C459.872 203.58 445.104 204.94 435.16 196.695Z" fill="#66A865"/>
<path d="M486.953 87.0437C500.574 87.0437 511.616 98.0858 511.616 111.707V113.322C511.616 114.27 511.56 115.205 511.456 116.125C521.726 119.105 529.232 128.582 529.232 139.812V141.427C529.232 155.049 518.19 166.091 504.569 166.091C497.202 166.09 490.591 162.859 486.072 157.738C481.553 162.859 474.942 166.091 467.575 166.091C453.954 166.091 442.912 155.049 442.912 141.427V139.812C442.912 127.965 451.265 118.07 462.403 115.693C462.329 114.913 462.29 114.122 462.29 113.322V111.707C462.29 98.0858 473.332 87.0437 486.953 87.0437Z" fill="#66A865"/>
<path d="M486.263 75.6292C499.884 75.6292 510.926 86.6712 510.926 100.292V101.907C510.926 102.855 510.87 103.79 510.766 104.71C521.035 107.691 528.542 117.167 528.542 128.398V130.013C528.542 143.634 517.5 154.676 503.879 154.676C496.512 154.676 489.901 151.445 485.382 146.323C480.863 151.445 474.252 154.676 466.885 154.676C453.264 154.676 442.222 143.634 442.222 130.013V128.398C442.222 116.551 450.575 106.655 461.713 104.279C461.638 103.498 461.6 102.707 461.6 101.907V100.292C461.6 86.6712 472.642 75.6292 486.263 75.6292Z" fill="#66A865"/>
<path d="M441.874 72.3218C453.05 72.322 462.11 81.382 462.11 92.5581V93.8833C462.11 94.6609 462.063 95.4283 461.978 96.1831C470.404 98.6285 476.564 106.405 476.564 115.62V116.945C476.564 128.121 467.504 137.181 456.328 137.181C450.283 137.181 444.858 134.53 441.15 130.328C437.442 134.529 432.018 137.181 425.973 137.181C414.797 137.181 405.737 128.121 405.737 116.945V115.62C405.737 105.899 412.591 97.7796 421.73 95.8296C421.669 95.1891 421.637 94.5398 421.637 93.8833V92.5581C421.637 81.3819 430.697 72.3218 441.874 72.3218Z" fill="#66A865"/>
<path d="M457.149 92.1655C467.92 92.1657 476.652 100.898 476.652 111.669V112.947C476.652 113.696 476.608 114.435 476.526 115.163C484.647 117.52 490.583 125.014 490.584 133.895V135.172C490.584 145.944 481.851 154.676 471.08 154.676C465.254 154.676 460.025 152.121 456.452 148.071C452.878 152.12 447.65 154.676 441.825 154.676C431.053 154.676 422.321 145.944 422.321 135.172V133.895C422.321 124.526 428.927 116.701 437.735 114.822C437.676 114.205 437.645 113.579 437.645 112.947V111.669C437.645 100.898 446.377 92.1655 457.149 92.1655Z" fill="#66A865"/>
<path d="M527.961 122.993C528.543 125.095 528.855 127.31 528.855 129.597V131.213C528.855 132.294 528.784 133.359 528.649 134.403C529.233 136.506 529.545 138.722 529.545 141.011V142.627C529.545 155.861 519.122 166.659 506.037 167.261C506.721 173.357 505.013 179.713 500.768 184.803L499.714 186.067C492.52 194.695 480.415 196.847 470.84 191.84C470.429 192.439 469.986 193.025 469.511 193.594L468.458 194.858C460.185 204.779 445.417 206.139 435.472 197.894C427.871 191.592 425.288 181.502 428.188 172.667C425.307 173.865 422.148 174.529 418.833 174.529C405.361 174.529 394.441 163.608 394.441 150.136V148.539C394.441 143.6 395.911 139.006 398.434 135.166C402.793 141.801 410.301 146.182 418.833 146.182C422.925 146.182 426.781 145.173 430.168 143.391C431.58 146.355 433.644 149.067 436.34 151.302C446.285 159.547 461.053 158.187 469.326 148.266L470.379 147.002C470.854 146.432 471.297 145.846 471.709 145.247C481.283 150.254 493.389 148.103 500.583 139.475L501.25 138.675C502.435 138.85 503.648 138.943 504.882 138.943C515.436 138.943 524.44 132.314 527.961 122.993Z" fill="#458244"/>
<path d="M456.201 159H467.81L477.271 249.109H446.59L456.201 159Z" fill="#93642D"/>
<path d="M456.118 159H467.893L472.878 207.5H451.103L456.118 159Z" fill="#714D22"/>
<path fill-rule="evenodd" clip-rule="evenodd" d="M452.94 197.397C434.785 184.363 432.578 164.778 433.848 156.229L442.051 157.441C441.11 163.774 442.772 179.909 457.785 190.687L452.94 197.397Z" fill="#714D22"/>
<path fill-rule="evenodd" clip-rule="evenodd" d="M466.653 184.168C484.808 171.134 487.015 151.549 485.745 143L477.542 144.211C478.483 150.545 476.82 166.68 461.808 177.458L466.653 184.168Z" fill="#714D22"/>
<path d="M457.609 111C466.6 111 473.889 118.288 473.889 127.279V128.345C473.889 128.971 473.852 129.589 473.783 130.196C480.562 132.163 485.517 138.418 485.517 145.832V146.897C485.517 155.888 478.229 163.177 469.238 163.177C464.375 163.177 460.011 161.044 457.028 157.664C454.045 161.044 449.681 163.177 444.818 163.177C435.827 163.177 428.539 155.888 428.539 146.897V145.831C428.539 138.011 434.053 131.48 441.405 129.911C441.356 129.396 441.33 128.873 441.33 128.345V127.279C441.33 118.288 448.618 111 457.609 111Z" fill="#66A865"/>
<path d="M482.005 122.612C488.306 122.612 493.414 127.72 493.414 134.02V134.767C493.414 135.206 493.386 135.64 493.337 136.066C498.089 137.444 501.563 141.826 501.563 147.021V147.768C501.563 154.069 496.455 159.177 490.155 159.177C486.746 159.177 483.688 157.681 481.597 155.31C479.507 157.68 476.45 159.177 473.041 159.177C466.741 159.177 461.633 154.069 461.633 147.768V147.021C461.633 141.541 465.498 136.964 470.65 135.865C470.615 135.504 470.597 135.137 470.597 134.767V134.02C470.597 127.72 475.705 122.612 482.005 122.612Z" fill="#66A865"/>
<path d="M459.332 122.717C454.274 129.942 444.305 131.714 437.067 126.675L436.104 126.005C435.616 125.665 435.154 125.301 434.716 124.919C429.318 129.26 421.498 129.735 415.531 125.581L414.568 124.911C407.329 119.872 405.562 109.93 410.62 102.705C413.356 98.7969 417.529 96.4857 421.929 95.9833C420.886 91.6917 421.623 86.9896 424.359 83.0819C429.417 75.8569 439.386 74.0848 446.625 79.1238L447.588 79.7944C453.882 84.1763 456.039 92.2652 453.169 99.0514C453.594 99.293 454.013 99.5557 454.422 99.8406L455.385 100.511C462.624 105.55 464.391 115.492 459.332 122.717Z" fill="#83C082"/>
<rect x="1161.32" y="173.672" width="16.4968" height="77.5479" fill="#93642D"/>
<rect x="1161.37" y="145" width="16.4968" height="77.5479" fill="#714D22"/>
<rect x="1140.3" y="143.337" width="59.7026" height="59.5317" rx="29.7659" fill="#83C082"/>
<rect x="1143.3" y="105.427" width="54.6358" height="54.4795" rx="27.2397" fill="#66A865"/>
<rect x="1147.31" y="76" width="46.2058" height="46.0735" rx="23.0368" fill="#83C082"/>
<path d="M1199.74 169.883C1199.89 171.069 1199.97 172.276 1199.97 173.5C1199.97 189.939 1186.55 203.265 1170.11 203.266C1153.68 203.266 1140.26 189.939 1140.26 173.5C1140.26 172.276 1140.34 171.068 1140.48 169.883C1142.28 184.616 1154.9 196.031 1170.11 196.031C1185.33 196.031 1197.95 184.616 1199.74 169.883Z" fill="#679A66"/>
<rect x="947.013" y="173.198" width="16.4968" height="77.5479" fill="#93642D"/>
<rect x="947.057" y="144.527" width="16.4968" height="77.5479" fill="#714D22"/>
<path d="M954.781 130.9L1001.72 211.972H907.839L954.781 130.9Z" fill="#66A865"/>
<path d="M954.825 100.351L994.623 169.086H915.026L954.825 100.351Z" fill="#83C082"/>
<path d="M970.123 126.527H939.535L935.022 134.027H974.636L970.123 126.527Z" fill="#458244"/>
<path d="M976.913 169.027H932.709L928.504 176.027H981.154L976.913 169.027Z" fill="#458244"/>
<path d="M955.348 72.1511L986.983 126.787H923.714L955.348 72.1511Z" fill="#66A865"/>
<path d="M955.348 49L981.238 93.7141H929.459L955.348 49Z" fill="#83C082"/>
<path d="M967.616 93.5269H943.045L938.532 101.027H972.128L967.616 93.5269Z" fill="#458244"/>
<path d="M1040.41 95.1506C1053.88 95.1508 1064.8 106.071 1064.8 119.542V121.14C1064.8 122.077 1064.75 123.002 1064.64 123.912C1074.8 126.86 1082.22 136.232 1082.22 147.339V148.937C1082.22 162.408 1071.3 173.329 1057.83 173.329C1050.55 173.329 1044.01 170.134 1039.54 165.069C1035.07 170.133 1028.53 173.329 1021.24 173.329C1007.77 173.329 996.853 162.408 996.853 148.937V147.339C996.853 135.622 1005.11 125.836 1016.13 123.486C1016.06 122.714 1016.02 121.931 1016.02 121.14V119.542C1016.02 106.071 1026.94 95.1506 1040.41 95.1506Z" fill="#66A865"/>
<path d="M1037.88 196.695C1027.94 188.45 1026.58 173.724 1034.86 163.803L1035.91 162.539C1036.48 161.862 1037.07 161.226 1037.69 160.629C1032.01 152.243 1032.28 140.799 1039.1 132.62L1040.16 131.356C1048.43 121.435 1063.2 120.075 1073.14 128.32C1078.52 132.779 1081.39 139.134 1081.57 145.6C1087.98 144.605 1094.77 146.253 1100.15 150.712C1110.1 158.956 1111.45 173.682 1103.18 183.604L1102.13 184.868C1094.93 193.496 1082.83 195.647 1073.25 190.64C1072.84 191.239 1072.4 191.825 1071.92 192.395L1070.87 193.659C1062.6 203.58 1047.83 204.939 1037.88 196.695Z" fill="#66A865"/>
<path d="M1089.68 87.0432C1103.3 87.0433 1114.34 98.0853 1114.34 111.706V113.322C1114.34 114.269 1114.29 115.204 1114.18 116.124C1124.45 119.105 1131.96 128.581 1131.96 139.812V141.427C1131.96 155.048 1120.92 166.09 1107.29 166.09C1099.93 166.09 1093.32 162.859 1088.8 157.738C1084.28 162.859 1077.67 166.09 1070.3 166.09C1056.68 166.09 1045.64 155.048 1045.64 141.427V139.812C1045.64 127.965 1053.99 118.069 1065.13 115.693C1065.05 114.912 1065.01 114.121 1065.01 113.322V111.706C1065.01 98.0853 1076.06 87.0432 1089.68 87.0432Z" fill="#66A865"/>
<path d="M1088.99 75.6287C1102.61 75.6287 1113.65 86.6707 1113.65 100.292V101.907C1113.65 102.855 1113.59 103.79 1113.49 104.71C1123.76 107.69 1131.27 117.166 1131.27 128.397V130.012C1131.27 143.633 1120.22 154.676 1106.6 154.676C1099.24 154.675 1092.63 151.444 1088.11 146.323C1083.59 151.444 1076.98 154.676 1069.61 154.676C1055.99 154.676 1044.95 143.633 1044.95 130.012V128.397C1044.95 116.55 1053.3 106.654 1064.44 104.278C1064.36 103.498 1064.32 102.707 1064.32 101.907V100.292C1064.32 86.6708 1075.37 75.6287 1088.99 75.6287Z" fill="#66A865"/>
<path d="M1044.6 72.3213C1055.77 72.3215 1064.83 81.3816 1064.83 92.5576V93.8828C1064.83 94.6604 1064.79 95.4278 1064.7 96.1826C1073.13 98.6281 1079.29 106.404 1079.29 115.619V116.944C1079.29 128.12 1070.23 137.181 1059.05 137.181C1053.01 137.181 1047.58 134.529 1043.87 130.327C1040.17 134.529 1034.74 137.181 1028.7 137.181C1017.52 137.181 1008.46 128.12 1008.46 116.944V115.619C1008.46 105.899 1015.32 97.7795 1024.45 95.8291C1024.39 95.1887 1024.36 94.5392 1024.36 93.8828V92.5576C1024.36 81.3814 1033.42 72.3213 1044.6 72.3213Z" fill="#66A865"/>
<path d="M1059.87 92.165C1070.65 92.1652 1079.38 100.898 1079.38 111.669V112.946C1079.38 113.696 1079.33 114.435 1079.25 115.162C1087.37 117.519 1093.31 125.013 1093.31 133.895V135.172C1093.31 145.943 1084.58 154.676 1073.8 154.676C1067.98 154.676 1062.75 152.12 1059.18 148.07C1055.6 152.12 1050.38 154.676 1044.55 154.676C1033.78 154.676 1025.05 145.943 1025.05 135.172V133.895C1025.05 124.526 1031.65 116.701 1040.46 114.821C1040.4 114.204 1040.37 113.579 1040.37 112.946V111.669C1040.37 100.897 1049.1 92.165 1059.87 92.165Z" fill="#66A865"/>
<path d="M1130.68 122.991C1131.27 125.094 1131.58 127.308 1131.58 129.596V131.211C1131.58 132.293 1131.51 133.358 1131.37 134.403C1131.96 136.506 1132.27 138.722 1132.27 141.011V142.626C1132.27 155.86 1121.85 166.658 1108.76 167.261C1109.45 173.357 1107.74 179.713 1103.49 184.803L1102.44 186.067C1095.25 194.694 1083.14 196.846 1073.57 191.838C1073.15 192.437 1072.71 193.023 1072.24 193.593L1071.18 194.858C1062.91 204.779 1048.14 206.138 1038.2 197.894C1030.6 191.591 1028.01 181.501 1030.91 172.665C1028.03 173.864 1024.87 174.529 1021.56 174.529C1008.09 174.528 997.166 163.607 997.166 150.136V148.538C997.166 143.6 998.636 139.006 1001.16 135.165C1005.52 141.8 1013.03 146.182 1021.56 146.182C1025.65 146.182 1029.51 145.172 1032.89 143.391C1034.31 146.354 1036.37 149.066 1039.07 151.301C1049.01 159.545 1063.78 158.186 1072.05 148.265L1073.1 147.001C1073.58 146.432 1074.02 145.845 1074.43 145.246C1084.01 150.254 1096.11 148.102 1103.31 139.474L1103.97 138.674C1105.16 138.849 1106.37 138.943 1107.61 138.943C1118.16 138.943 1127.16 132.313 1130.68 122.991Z" fill="#458244"/>
<path d="M1058.93 158.999H1070.53L1080 249.109H1049.32L1058.93 158.999Z" fill="#93642D"/>
<path d="M1058.84 158.999H1070.62L1075.6 207.499H1053.83L1058.84 158.999Z" fill="#714D22"/>
<path fill-rule="evenodd" clip-rule="evenodd" d="M1055.67 197.397C1037.51 184.362 1035.3 164.778 1036.57 156.229L1044.78 157.44C1043.83 163.774 1045.5 179.908 1060.51 190.687L1055.67 197.397Z" fill="#714D22"/>
<path fill-rule="evenodd" clip-rule="evenodd" d="M1069.38 184.167C1087.53 171.133 1089.74 151.548 1088.47 142.999L1080.27 144.211C1081.21 150.545 1079.55 166.679 1064.53 177.457L1069.38 184.167Z" fill="#714D22"/>
<path d="M1060.33 110.999C1069.32 110.999 1076.61 118.288 1076.61 127.279V128.345C1076.61 128.971 1076.58 129.588 1076.51 130.196C1083.29 132.163 1088.24 138.418 1088.24 145.831V146.897C1088.24 155.888 1080.95 163.177 1071.96 163.177C1067.1 163.177 1062.73 161.044 1059.75 157.663C1056.77 161.043 1052.41 163.177 1047.54 163.177C1038.55 163.177 1031.26 155.888 1031.26 146.897V145.83C1031.26 138.01 1036.78 131.479 1044.13 129.91C1044.08 129.395 1044.05 128.873 1044.05 128.345V127.279C1044.05 118.288 1051.34 110.999 1060.33 110.999Z" fill="#66A865"/>
<path d="M1084.73 122.612C1091.03 122.612 1096.14 127.719 1096.14 134.02V134.767C1096.14 135.206 1096.11 135.639 1096.06 136.066C1100.81 137.444 1104.29 141.825 1104.29 147.021V147.768C1104.29 154.068 1099.18 159.177 1092.88 159.177C1089.47 159.177 1086.41 157.68 1084.32 155.31C1082.23 157.68 1079.17 159.177 1075.77 159.177C1069.47 159.177 1064.36 154.068 1064.36 147.768V147.021C1064.36 141.541 1068.22 136.964 1073.37 135.865C1073.34 135.503 1073.32 135.137 1073.32 134.767V134.02C1073.32 127.719 1078.43 122.612 1084.73 122.612Z" fill="#66A865"/>
<path d="M1062.06 122.716C1057 129.941 1047.03 131.713 1039.79 126.674L1038.83 126.004C1038.34 125.665 1037.88 125.301 1037.44 124.919C1032.04 129.26 1024.22 129.734 1018.26 125.58L1017.29 124.91C1010.05 119.871 1008.29 109.93 1013.34 102.705C1016.08 98.7972 1020.25 96.4848 1024.65 95.9823C1023.61 91.6908 1024.35 86.989 1027.08 83.0814C1032.14 75.8564 1042.11 74.0843 1049.35 79.1233L1050.31 79.7934C1056.61 84.1752 1058.76 92.2646 1055.89 99.0509C1056.32 99.2925 1056.74 99.5552 1057.15 99.8402L1058.11 100.51C1065.35 105.549 1067.12 115.491 1062.06 122.716Z" fill="#83C082"/>
<rect x="861.465" y="173.672" width="16.4968" height="77.5479" fill="#93642D"/>
<rect x="861.509" y="145" width="16.4968" height="77.5479" fill="#714D22"/>
<rect x="840.439" y="143.337" width="59.7026" height="59.5317" rx="29.7659" fill="#83C082"/>
<rect x="843.445" y="105.427" width="54.6358" height="54.4795" rx="27.2397" fill="#66A865"/>
<rect x="847.452" y="76" width="46.2058" height="46.0735" rx="23.0368" fill="#83C082"/>
<path d="M899.886 169.883C900.031 171.069 900.107 172.276 900.107 173.5C900.107 189.939 886.696 203.265 870.257 203.266C853.817 203.266 840.405 189.939 840.405 173.5C840.405 172.276 840.48 171.068 840.625 169.883C842.42 184.616 855.042 196.031 870.257 196.031C885.471 196.031 898.091 184.616 899.886 169.883Z" fill="#679A66"/>
<rect x="647.155" y="173.198" width="16.4968" height="77.5479" fill="#93642D"/>
<rect x="647.198" y="144.527" width="16.4968" height="77.5479" fill="#714D22"/>
<path d="M654.923 130.9L701.864 211.972H607.981L654.923 130.9Z" fill="#66A865"/>
<path d="M654.966 100.351L694.765 169.086H615.168L654.966 100.351Z" fill="#83C082"/>
<path d="M670.265 126.527H639.677L635.164 134.027H674.778L670.265 126.527Z" fill="#458244"/>
<path d="M677.055 169.027H632.851L628.646 176.027H681.296L677.055 169.027Z" fill="#458244"/>
<path d="M655.49 72.1511L687.125 126.787H623.855L655.49 72.1511Z" fill="#66A865"/>
<path d="M655.49 49L681.38 93.7141H629.6L655.49 49Z" fill="#83C082"/>
<path d="M667.757 93.5269H643.187L638.674 101.027H672.27L667.757 93.5269Z" fill="#458244"/>
<path d="M740.552 95.1506C754.023 95.1508 764.943 106.071 764.944 119.542V121.14C764.944 122.077 764.888 123.002 764.786 123.912C774.942 126.86 782.366 136.232 782.367 147.339V148.937C782.367 162.408 771.446 173.329 757.975 173.329C750.689 173.329 744.15 170.134 739.68 165.069C735.211 170.133 728.672 173.329 721.386 173.329C707.915 173.329 696.995 162.408 696.995 148.937V147.339C696.995 135.622 705.256 125.836 716.272 123.486C716.198 122.714 716.16 121.931 716.16 121.14V119.542C716.16 106.071 727.081 95.1506 740.552 95.1506Z" fill="#66A865"/>
<path d="M738.026 196.695C728.082 188.45 726.726 173.724 734.999 163.803L736.052 162.539C736.617 161.862 737.214 161.226 737.836 160.629C732.151 152.243 732.427 140.799 739.246 132.62L740.3 131.356C748.572 121.435 763.34 120.075 773.285 128.32C778.664 132.779 781.527 139.134 781.716 145.6C788.126 144.605 794.916 146.253 800.294 150.712C810.239 158.956 811.594 173.682 803.322 183.604L802.268 184.868C795.074 193.496 782.968 195.647 773.394 190.64C772.982 191.239 772.54 191.825 772.065 192.395L771.011 193.659C762.739 203.58 747.971 204.939 738.026 196.695Z" fill="#66A865"/>
<path d="M789.82 87.0432C803.441 87.0432 814.483 98.0853 814.483 111.706V113.322C814.483 114.269 814.427 115.204 814.323 116.124C824.592 119.105 832.099 128.581 832.099 139.812V141.427C832.099 155.048 821.057 166.09 807.436 166.09C800.069 166.09 793.458 162.859 788.939 157.738C784.42 162.859 777.809 166.09 770.442 166.09C756.821 166.09 745.779 155.048 745.779 141.427V139.812C745.779 127.965 754.132 118.069 765.27 115.693C765.196 114.912 765.157 114.121 765.157 113.322V111.706C765.157 98.0853 776.199 87.0432 789.82 87.0432Z" fill="#66A865"/>
<path d="M789.129 75.6287C802.75 75.6287 813.792 86.6708 813.792 100.292V101.907C813.792 102.855 813.736 103.79 813.632 104.71C823.902 107.69 831.409 117.167 831.409 128.397V130.012C831.409 143.633 820.367 154.676 806.746 154.676C799.379 154.675 792.768 151.444 788.249 146.323C783.729 151.444 777.118 154.676 769.751 154.676C756.13 154.676 745.088 143.633 745.088 130.012V128.397C745.088 116.55 753.442 106.655 764.58 104.278C764.505 103.498 764.466 102.707 764.466 101.907V100.292C764.466 86.6707 775.508 75.6287 789.129 75.6287Z" fill="#66A865"/>
<path d="M744.74 72.3213C755.916 72.3215 764.977 81.3815 764.977 92.5576V93.8828C764.977 94.6604 764.93 95.4278 764.845 96.1826C773.271 98.6281 779.431 106.404 779.431 115.619V116.944C779.431 128.12 770.371 137.181 759.194 137.181C753.15 137.181 747.725 134.529 744.017 130.327C740.309 134.529 734.885 137.181 728.84 137.181C717.664 137.181 708.604 128.12 708.604 116.944V115.619C708.604 105.898 715.458 97.7791 724.597 95.8291C724.536 95.1887 724.504 94.5393 724.504 93.8828V92.5576C724.504 81.3814 733.564 72.3213 744.74 72.3213Z" fill="#66A865"/>
<path d="M760.016 92.165C770.787 92.1652 779.519 100.897 779.519 111.669V112.946C779.519 113.696 779.475 114.435 779.393 115.162C787.514 117.519 793.45 125.013 793.45 133.895V135.172C793.45 145.943 784.718 154.676 773.946 154.676C768.121 154.676 762.892 152.12 759.319 148.07C755.745 152.12 750.517 154.676 744.692 154.676C733.92 154.676 725.188 145.943 725.188 135.172V133.895C725.188 124.526 731.794 116.701 740.602 114.821C740.543 114.204 740.512 113.579 740.512 112.946V111.669C740.512 100.897 749.244 92.165 760.016 92.165Z" fill="#66A865"/>
<path d="M830.826 122.992C831.409 125.095 831.722 127.309 831.722 129.597V131.212C831.722 132.293 831.651 133.358 831.516 134.403C832.099 136.506 832.412 138.722 832.412 141.011V142.626C832.412 155.86 821.989 166.658 808.903 167.261C809.588 173.357 807.879 179.712 803.635 184.803L802.581 186.067C795.387 194.695 783.282 196.847 773.707 191.839C773.295 192.438 772.853 193.024 772.378 193.594L771.324 194.858C763.052 204.779 748.284 206.138 738.339 197.894C730.737 191.592 728.155 181.502 731.055 172.666C728.174 173.864 725.014 174.529 721.699 174.529C708.228 174.528 697.308 163.607 697.308 150.136V148.538C697.308 143.6 698.779 139.006 701.302 135.166C705.661 141.8 713.168 146.182 721.699 146.182C725.792 146.182 729.648 145.172 733.034 143.391C734.447 146.354 736.511 149.067 739.207 151.302C749.152 159.546 763.92 158.187 772.192 148.266L773.246 147.001C773.721 146.432 774.164 145.845 774.575 145.246C784.15 150.254 796.255 148.103 803.449 139.475L804.116 138.674C805.302 138.849 806.515 138.943 807.749 138.943C818.302 138.943 827.305 132.313 830.826 122.992Z" fill="#458244"/>
<path d="M759.067 158.999H770.676L780.138 249.109H749.457L759.067 158.999Z" fill="#93642D"/>
<path d="M758.984 158.999H770.759L775.745 207.499H753.97L758.984 158.999Z" fill="#714D22"/>
<path fill-rule="evenodd" clip-rule="evenodd" d="M755.807 197.397C737.652 184.362 735.445 164.778 736.715 156.229L744.917 157.44C743.976 163.774 745.639 179.908 760.652 190.687L755.807 197.397Z" fill="#714D22"/>
<path fill-rule="evenodd" clip-rule="evenodd" d="M769.519 184.167C787.675 171.133 789.882 151.548 788.611 142.999L780.409 144.211C781.35 150.545 779.687 166.679 764.674 177.457L769.519 184.167Z" fill="#714D22"/>
<path d="M760.476 110.999C769.467 110.999 776.756 118.288 776.756 127.279V128.345C776.756 128.971 776.719 129.588 776.651 130.196C783.429 132.163 788.384 138.418 788.384 145.831V146.897C788.384 155.888 781.095 163.177 772.105 163.177C767.242 163.177 762.877 161.044 759.894 157.663C756.911 161.043 752.547 163.177 747.685 163.177C738.694 163.177 731.405 155.888 731.405 146.897V145.83C731.406 138.01 736.92 131.479 744.272 129.91C744.223 129.395 744.196 128.873 744.196 128.345V127.279C744.197 118.288 751.485 110.999 760.476 110.999Z" fill="#66A865"/>
<path d="M784.872 122.612C791.173 122.612 796.28 127.719 796.28 134.02V134.767C796.28 135.206 796.252 135.639 796.204 136.066C800.955 137.444 804.429 141.825 804.43 147.021V147.768C804.43 154.068 799.322 159.177 793.021 159.177C789.612 159.177 786.554 157.68 784.464 155.31C782.373 157.68 779.317 159.177 775.908 159.177C769.607 159.177 764.5 154.068 764.5 147.768V147.021C764.5 141.541 768.364 136.964 773.516 135.865C773.482 135.503 773.464 135.137 773.464 134.767V134.02C773.464 127.719 778.571 122.612 784.872 122.612Z" fill="#66A865"/>
<path d="M762.199 122.716C757.141 129.941 747.172 131.713 739.933 126.674L738.971 126.004C738.483 125.665 738.02 125.301 737.582 124.919C732.185 129.26 724.364 129.734 718.398 125.581L717.435 124.91C710.196 119.871 708.429 109.929 713.487 102.704C716.223 98.7966 720.395 96.4848 724.795 95.9823C723.752 91.6908 724.49 86.989 727.226 83.0814C732.284 75.8564 742.253 74.0843 749.492 79.1233L750.454 79.7934C756.749 84.1752 758.906 92.2646 756.036 99.0509C756.461 99.2925 756.88 99.5552 757.289 99.8402L758.252 100.51C765.49 105.549 767.258 115.491 762.199 122.716Z" fill="#83C082"/>
<rect x="260.746" y="173.672" width="16.4968" height="77.5479" fill="#93642D"/>
<rect x="260.79" y="145" width="16.4968" height="77.5479" fill="#714D22"/>
<rect x="239.72" y="143.337" width="59.7026" height="59.5317" rx="29.7659" fill="#83C082"/>
<rect x="242.726" y="105.427" width="54.6358" height="54.4795" rx="27.2397" fill="#66A865"/>
<rect x="246.732" y="76" width="46.2058" height="46.0735" rx="23.0368" fill="#83C082"/>
<path d="M299.167 169.883C299.312 171.069 299.388 172.276 299.388 173.5C299.388 189.939 285.977 203.265 269.538 203.266C253.098 203.266 239.686 189.939 239.686 173.5C239.686 172.276 239.761 171.068 239.906 169.883C241.701 184.616 254.323 196.031 269.538 196.031C284.752 196.031 297.372 184.616 299.167 169.883Z" fill="#679A66"/>
<rect x="46.4354" y="173.198" width="16.4968" height="77.5479" fill="#93642D"/>
<rect x="46.4793" y="144.527" width="16.4968" height="77.5479" fill="#714D22"/>
<path d="M54.2036 130.9L101.145 211.972H7.26191L54.2036 130.9Z" fill="#66A865"/>
<path d="M54.2473 100.351L94.0457 169.086H14.4489L54.2473 100.351Z" fill="#83C082"/>
<path d="M69.5453 126.527H38.9578L34.4449 134.027H74.0583L69.5453 126.527Z" fill="#458244"/>
<path d="M76.3358 169.027H32.1316L27.9262 176.027H80.5769L76.3358 169.027Z" fill="#458244"/>
<path d="M54.7709 72.1511L86.4056 126.787H23.1363L54.7709 72.1511Z" fill="#66A865"/>
<path d="M54.7711 49L80.6608 93.7141H28.8813L54.7711 49Z" fill="#83C082"/>
<path d="M67.0382 93.5269H42.4678L37.9549 101.027H71.5511L67.0382 93.5269Z" fill="#458244"/>
<path d="M139.833 95.1511C153.304 95.1513 164.225 106.072 164.225 119.543V121.14C164.225 122.078 164.169 123.003 164.067 123.913C174.223 126.861 181.647 136.232 181.648 147.34V148.937C181.648 162.408 170.727 173.33 157.256 173.33C149.97 173.33 143.431 170.134 138.961 165.069C134.492 170.134 127.953 173.33 120.667 173.33C107.196 173.33 96.2755 162.408 96.2755 148.937V147.34C96.2757 135.623 104.537 125.837 115.553 123.486C115.479 122.714 115.441 121.932 115.441 121.14V119.543C115.441 106.072 126.362 95.1511 139.833 95.1511Z" fill="#66A865"/>
<path d="M137.307 196.695C127.362 188.451 126.007 173.724 134.279 163.803L135.333 162.539C135.898 161.862 136.495 161.227 137.116 160.629C131.432 152.243 131.707 140.799 138.527 132.62L139.581 131.357C147.853 121.435 162.621 120.076 172.566 128.32C177.944 132.779 180.808 139.135 180.997 145.601C187.407 144.606 194.196 146.253 199.575 150.712C209.519 158.956 210.875 173.683 202.603 183.604L201.549 184.868C194.355 193.496 182.249 195.648 172.675 190.64C172.263 191.239 171.821 191.826 171.346 192.395L170.292 193.659C162.02 203.58 147.252 204.94 137.307 196.695Z" fill="#66A865"/>
<path d="M189.101 87.0437C202.722 87.0437 213.764 98.0858 213.764 111.707V113.322C213.764 114.27 213.708 115.205 213.604 116.125C223.873 119.105 231.38 128.582 231.38 139.812V141.427C231.38 155.049 220.338 166.091 206.717 166.091C199.35 166.09 192.739 162.859 188.22 157.738C183.701 162.859 177.09 166.091 169.723 166.091C156.102 166.091 145.06 155.049 145.06 141.427V139.812C145.06 127.965 153.413 118.07 164.551 115.693C164.476 114.913 164.438 114.122 164.438 113.322V111.707C164.438 98.0858 175.48 87.0437 189.101 87.0437Z" fill="#66A865"/>
<path d="M188.41 75.6292C202.031 75.6292 213.073 86.6712 213.073 100.292V101.907C213.073 102.855 213.017 103.79 212.913 104.71C223.183 107.691 230.689 117.167 230.69 128.398V130.013C230.69 143.634 219.647 154.676 206.026 154.676C198.659 154.676 192.049 151.445 187.529 146.323C183.01 151.445 176.399 154.676 169.032 154.676C155.411 154.676 144.369 143.634 144.369 130.013V128.398C144.369 116.55 152.723 106.655 163.861 104.279C163.787 103.498 163.747 102.707 163.747 101.907V100.292C163.747 86.6713 174.789 75.6292 188.41 75.6292Z" fill="#66A865"/>
<path d="M144.021 72.3218C155.197 72.322 164.257 81.382 164.257 92.5581V93.8833C164.257 94.6609 164.211 95.4283 164.126 96.1831C172.552 98.6286 178.712 106.405 178.712 115.62V116.945C178.711 128.121 169.651 137.181 158.475 137.181C152.43 137.181 147.006 134.53 143.298 130.328C139.589 134.529 134.165 137.181 128.121 137.181C116.945 137.181 107.885 128.121 107.884 116.945V115.62C107.884 105.899 114.739 97.7796 123.878 95.8296C123.816 95.1891 123.785 94.5398 123.785 93.8833V92.5581C123.785 81.3819 132.845 72.3218 144.021 72.3218Z" fill="#66A865"/>
<path d="M159.297 92.1655C170.068 92.1657 178.799 100.898 178.799 111.669V112.947C178.799 113.696 178.756 114.435 178.673 115.163C186.795 117.52 192.731 125.014 192.731 133.895V135.172C192.731 145.944 183.999 154.676 173.227 154.676C167.401 154.676 162.173 152.121 158.599 148.071C155.026 152.12 149.798 154.676 143.972 154.676C133.201 154.676 124.468 145.944 124.468 135.172V133.895C124.468 124.526 131.074 116.701 139.882 114.822C139.824 114.205 139.793 113.579 139.793 112.947V111.669C139.793 100.898 148.525 92.1655 159.297 92.1655Z" fill="#66A865"/>
<path d="M230.107 122.992C230.69 125.094 231.003 127.309 231.003 129.597V131.213C231.003 132.294 230.932 133.359 230.797 134.403C231.38 136.506 231.693 138.722 231.693 141.011V142.627C231.693 155.861 221.269 166.659 208.184 167.261C208.869 173.357 207.16 179.713 202.916 184.803L201.862 186.067C194.668 194.695 182.562 196.847 172.988 191.84C172.576 192.439 172.134 193.025 171.659 193.594L170.605 194.858C162.333 204.779 147.564 206.138 137.62 197.894C130.018 191.592 127.436 181.502 130.336 172.667C127.455 173.865 124.295 174.529 120.98 174.529C107.509 174.529 96.5886 163.608 96.5886 150.136V148.539C96.5887 143.6 98.0586 139.006 100.582 135.166C104.941 141.801 112.448 146.182 120.98 146.182C125.073 146.182 128.929 145.173 132.315 143.391C133.728 146.355 135.792 149.067 138.488 151.302C148.432 159.547 163.201 158.187 171.473 148.266L172.527 147.002C173.002 146.432 173.445 145.846 173.856 145.247C183.431 150.254 195.536 148.103 202.73 139.475L203.397 138.675C204.583 138.85 205.796 138.943 207.03 138.943C217.584 138.943 226.586 132.313 230.107 122.992Z" fill="#458244"/>
<path d="M158.348 159H169.957L179.418 249.109H148.738L158.348 159Z" fill="#93642D"/>
<path d="M158.265 159H170.04L175.026 207.5H153.251L158.265 159Z" fill="#714D22"/>
<path fill-rule="evenodd" clip-rule="evenodd" d="M155.088 197.397C136.932 184.363 134.726 164.778 135.996 156.229L144.198 157.441C143.257 163.774 144.92 179.909 159.933 190.687L155.088 197.397Z" fill="#714D22"/>
<path fill-rule="evenodd" clip-rule="evenodd" d="M168.8 184.168C186.955 171.134 189.162 151.549 187.892 143L179.69 144.211C180.631 150.545 178.968 166.68 163.955 177.458L168.8 184.168Z" fill="#714D22"/>
<path d="M159.757 111C168.747 111 176.037 118.288 176.037 127.279V128.345C176.037 128.971 175.999 129.589 175.93 130.196C182.709 132.163 187.665 138.418 187.665 145.832V146.897C187.665 155.888 180.376 163.177 171.385 163.177C166.523 163.177 162.159 161.044 159.176 157.664C156.192 161.044 151.828 163.177 146.966 163.177C137.975 163.177 130.686 155.888 130.686 146.897V145.831C130.686 138.011 136.2 131.48 143.552 129.911C143.503 129.396 143.477 128.873 143.477 128.345V127.279C143.477 118.288 150.766 111 159.757 111Z" fill="#66A865"/>
<path d="M184.153 122.612C190.454 122.612 195.562 127.72 195.562 134.02V134.767C195.562 135.206 195.533 135.64 195.485 136.066C200.236 137.444 203.71 141.826 203.711 147.021V147.768C203.711 154.069 198.603 159.177 192.302 159.177C188.893 159.177 185.835 157.681 183.745 155.31C181.654 157.68 178.597 159.177 175.189 159.177C168.888 159.177 163.781 154.069 163.781 147.768V147.021C163.781 141.541 167.645 136.964 172.797 135.865C172.763 135.504 172.745 135.137 172.745 134.767V134.02C172.745 127.72 177.852 122.612 184.153 122.612Z" fill="#66A865"/>
<path d="M161.48 122.717C156.422 129.942 146.453 131.714 139.214 126.675L138.252 126.005C137.764 125.665 137.301 125.301 136.863 124.919C131.466 129.26 123.645 129.735 117.679 125.581L116.715 124.911C109.477 119.872 107.71 109.93 112.768 102.705C115.504 98.7971 119.676 96.4853 124.076 95.9828C123.033 91.6913 123.771 86.9894 126.506 83.0819C131.565 75.8569 141.534 74.0848 148.772 79.1238L149.736 79.7944C156.03 84.1763 158.187 92.2652 155.316 99.0514C155.742 99.293 156.161 99.5557 156.57 99.8406L157.533 100.511C164.771 105.55 166.538 115.492 161.48 122.717Z" fill="#83C082"/>
</svg>
