<svg width="603" height="600" viewBox="0 0 603 600" fill="none" xmlns="http://www.w3.org/2000/svg">
<rect x="303" width="300" height="300" fill="#BCE8BB"/>
<rect x="557" y="180.672" width="16.4495" height="77.5479" fill="#93642D"/>
<rect x="557.044" y="152" width="16.4495" height="77.5479" fill="#714D22"/>
<rect x="536.034" y="150.337" width="59.5317" height="59.5317" rx="29.7659" fill="#83C082"/>
<rect x="539.031" y="112.427" width="54.4795" height="54.4795" rx="27.2397" fill="#66A865"/>
<rect x="543.026" y="83" width="46.0735" height="46.0735" rx="23.0368" fill="#83C082"/>
<path d="M595.312 176.883C595.456 178.068 595.531 179.276 595.531 180.5C595.531 196.939 582.205 210.266 565.766 210.266C549.327 210.266 536 196.939 536 180.5C536 179.276 536.075 178.068 536.219 176.883C538.004 191.616 550.551 203.031 565.766 203.031C580.98 203.031 593.528 191.616 595.312 176.883Z" fill="#679A66"/>
<rect x="343.302" y="180.198" width="16.4495" height="77.5479" fill="#93642D"/>
<rect x="343.346" y="151.527" width="16.4495" height="77.5479" fill="#714D22"/>
<path d="M351.049 137.9L397.856 218.972H304.241L351.049 137.9Z" fill="#66A865"/>
<path d="M351.092 107.351L390.777 176.086H311.408L351.092 107.351Z" fill="#83C082"/>
<path d="M366.346 133.527H335.846L331.346 141.027H370.846L366.346 133.527Z" fill="#458244"/>
<path d="M373.117 176.027H329.04L324.846 183.027H377.346L373.117 176.027Z" fill="#458244"/>
<path d="M351.614 79.1511L383.158 133.787H320.07L351.614 79.1511Z" fill="#66A865"/>
<path d="M351.614 56L377.43 100.714H325.799L351.614 56Z" fill="#83C082"/>
<path d="M363.846 100.527H339.346L334.846 108.027H368.346L363.846 100.527Z" fill="#458244"/>
<path d="M436.433 102.151C449.865 102.151 460.755 113.041 460.755 126.473V128.211C460.755 129.124 460.702 130.025 460.604 130.912C470.728 133.853 478.128 143.197 478.128 154.27V156.008C478.128 169.44 467.238 180.33 453.806 180.33C446.54 180.33 440.02 177.143 435.563 172.093C431.107 177.143 424.587 180.33 417.322 180.33C403.89 180.33 393 169.44 393 156.008V154.27C393 142.589 401.235 132.832 412.217 130.486C412.147 129.737 412.11 128.978 412.11 128.211V126.473C412.11 113.041 423 102.151 436.433 102.151Z" fill="#66A865"/>
<path d="M433.914 203.695C423.998 195.451 422.643 180.729 430.887 170.813L431.953 169.53C432.514 168.856 433.106 168.223 433.723 167.628C428.055 159.243 428.326 147.804 435.122 139.63L436.189 138.347C444.433 128.431 459.155 127.076 469.071 135.321C474.434 139.78 477.292 146.133 477.482 152.597C483.872 151.604 490.64 153.254 496.004 157.713C505.92 165.957 507.275 180.679 499.03 190.595L497.964 191.878C490.795 200.501 478.727 202.649 469.181 197.641C468.772 198.237 468.333 198.819 467.862 199.386L466.796 200.668C458.552 210.584 443.83 211.939 433.914 203.695Z" fill="#66A865"/>
<path d="M485.56 94.0437C499.142 94.0437 510.152 105.054 510.152 118.636V120.392C510.152 121.316 510.099 122.228 510 123.125C520.236 126.099 527.718 135.546 527.718 146.742V148.499C527.718 162.081 516.708 173.09 503.126 173.091C495.78 173.091 489.187 169.869 484.681 164.762C480.174 169.869 473.583 173.09 466.237 173.091C452.655 173.091 441.645 162.081 441.645 148.499V146.742C441.645 134.931 449.971 125.065 461.074 122.693C461.004 121.936 460.967 121.168 460.967 120.392V118.636C460.967 105.054 471.978 94.0437 485.56 94.0437Z" fill="#66A865"/>
<path d="M484.871 82.6292C498.453 82.6292 509.464 93.6399 509.464 107.222V108.978C509.464 109.901 509.411 110.813 509.312 111.71C519.548 114.685 527.029 124.132 527.029 135.327V137.084C527.029 150.666 516.019 161.676 502.438 161.676C495.091 161.676 488.498 158.455 483.992 153.348C479.486 158.454 472.894 161.676 465.549 161.676C451.967 161.676 440.956 150.666 440.956 137.084V135.327C440.956 123.516 449.283 113.651 460.386 111.279C460.315 110.521 460.278 109.754 460.278 108.978V107.222C460.278 93.6399 471.289 82.6292 484.871 82.6292Z" fill="#66A865"/>
<path d="M440.609 79.3218C451.753 79.3219 460.787 88.3563 460.787 99.5005V100.942C460.787 101.699 460.743 102.446 460.662 103.182C469.061 105.622 475.201 113.375 475.201 122.561V124.002C475.201 135.147 466.166 144.181 455.022 144.181C448.995 144.181 443.586 141.537 439.888 137.347C436.191 141.537 430.782 144.181 424.754 144.181C413.61 144.181 404.576 135.147 404.576 124.002V122.561C404.576 112.87 411.408 104.775 420.518 102.829C420.46 102.207 420.43 101.578 420.43 100.942V99.5005C420.43 88.3563 429.465 79.3218 440.609 79.3218Z" fill="#66A865"/>
<path d="M455.841 99.1655C466.581 99.1657 475.288 107.872 475.288 118.613V120.002C475.288 120.733 475.245 121.453 475.167 122.163C483.262 124.514 489.18 131.985 489.18 140.839V142.228C489.18 152.969 480.472 161.676 469.731 161.676C463.922 161.676 458.709 159.128 455.145 155.089C451.582 159.128 446.369 161.676 440.56 161.676C429.82 161.676 421.112 152.969 421.112 142.228V140.839C421.112 131.499 427.697 123.698 436.477 121.822C436.422 121.223 436.392 120.616 436.392 120.002V118.613C436.393 107.872 445.1 99.1655 455.841 99.1655Z" fill="#66A865"/>
<path d="M526.465 129.998C527.036 132.077 527.342 134.266 527.342 136.526V138.283C527.342 139.335 527.275 140.372 527.147 141.389C527.722 143.475 528.03 145.672 528.03 147.941V149.698C528.03 162.893 517.637 173.659 504.591 174.261C505.274 180.355 503.572 186.707 499.343 191.795L498.276 193.077C491.107 201.7 479.039 203.849 469.493 198.841C469.085 199.436 468.645 200.018 468.175 200.585L467.108 201.868C458.864 211.783 444.142 213.138 434.226 204.894C426.647 198.593 424.069 188.506 426.957 179.675C424.086 180.868 420.938 181.529 417.635 181.529C404.202 181.529 393.312 170.639 393.312 157.207V155.469C393.312 150.558 394.771 145.99 397.274 142.167C401.618 148.8 409.114 153.182 417.635 153.182C421.716 153.182 425.562 152.176 428.939 150.399C430.348 153.359 432.405 156.069 435.092 158.302C445.008 166.547 459.73 165.191 467.974 155.275L469.041 153.993C469.512 153.427 469.951 152.843 470.359 152.248C479.905 157.256 491.973 155.108 499.142 146.485L499.814 145.676C500.997 145.85 502.207 145.943 503.438 145.943C513.977 145.943 522.965 139.313 526.465 129.998Z" fill="#458244"/>
<path d="M454.895 166H466.471L475.905 256.109H445.312L454.895 166Z" fill="#93642D"/>
<path d="M454.812 166H466.554L471.525 214.5H449.812L454.812 166Z" fill="#714D22"/>
<path fill-rule="evenodd" clip-rule="evenodd" d="M451.644 204.397C433.541 191.363 431.34 171.778 432.607 163.229L440.786 164.441C439.847 170.774 441.505 186.909 456.475 197.687L451.644 204.397Z" fill="#714D22"/>
<path fill-rule="evenodd" clip-rule="evenodd" d="M465.317 191.168C483.42 178.134 485.621 158.549 484.354 150L476.175 151.211C477.114 157.545 475.456 173.68 460.486 184.458L465.317 191.168Z" fill="#714D22"/>
<path d="M456.3 118C465.265 118 472.533 125.268 472.533 134.233V135.392C472.533 136.002 472.498 136.603 472.432 137.195C479.189 139.158 484.128 145.395 484.128 152.785V153.944C484.128 162.909 476.86 170.177 467.894 170.177C463.045 170.177 458.694 168.05 455.719 164.679C452.745 168.05 448.394 170.177 443.546 170.177C434.58 170.177 427.312 162.909 427.312 153.944V152.785C427.312 144.989 432.808 138.477 440.137 136.911C440.091 136.411 440.067 135.904 440.067 135.392V134.233C440.067 125.268 447.334 118 456.3 118Z" fill="#66A865"/>
<path d="M480.627 129.612C486.909 129.612 492.002 134.705 492.002 140.988V141.801C492.002 142.228 491.975 142.651 491.929 143.066C496.665 144.442 500.128 148.81 500.128 153.989V154.802C500.128 161.084 495.034 166.177 488.752 166.177C485.353 166.177 482.304 164.685 480.219 162.322C478.135 164.685 475.087 166.177 471.688 166.177C465.405 166.177 460.312 161.084 460.312 154.802V153.989C460.312 148.525 464.165 143.963 469.301 142.866C469.269 142.515 469.251 142.16 469.251 141.801V140.988C469.251 134.705 474.344 129.612 480.627 129.612Z" fill="#66A865"/>
<path d="M458.018 129.716C452.974 136.941 443.028 138.71 435.803 133.666L434.869 133.014C434.378 132.671 433.913 132.303 433.473 131.917C428.089 136.259 420.285 136.73 414.329 132.572L413.394 131.92C406.17 126.876 404.401 116.93 409.445 109.705C412.173 105.797 416.335 103.486 420.725 102.986C419.683 98.6923 420.417 93.9892 423.145 90.0818C428.189 82.8571 438.135 81.0889 445.36 86.1328L446.294 86.7852C452.577 91.1715 454.733 99.265 451.872 106.052C452.3 106.296 452.722 106.562 453.135 106.85L454.068 107.502C461.293 112.546 463.062 122.491 458.018 129.716Z" fill="#83C082"/>
<rect x="303" y="300" width="300" height="300" fill="#BCE8BB"/>
<rect x="560" y="480.672" width="16.4495" height="77.5479" fill="#93642D"/>
<rect x="560.044" y="452" width="16.4495" height="77.5479" fill="#714D22"/>
<rect x="539.034" y="450.337" width="59.5317" height="59.5317" rx="29.7659" fill="#83C082"/>
<rect x="542.031" y="412.427" width="54.4795" height="54.4795" rx="27.2397" fill="#66A865"/>
<rect x="546.026" y="383" width="46.0735" height="46.0735" rx="23.0368" fill="#83C082"/>
<path d="M598.312 476.883C598.456 478.068 598.531 479.276 598.531 480.5C598.531 496.939 585.205 510.266 568.766 510.266C552.327 510.266 539 496.939 539 480.5C539 479.276 539.075 478.068 539.219 476.883C541.004 491.616 553.551 503.031 568.766 503.031C583.98 503.031 596.528 491.616 598.312 476.883Z" fill="#679A66"/>
<rect x="346.302" y="480.198" width="16.4495" height="77.5479" fill="#93642D"/>
<rect x="346.346" y="451.527" width="16.4495" height="77.5479" fill="#714D22"/>
<path d="M354.049 437.9L400.856 518.972H307.241L354.049 437.9Z" fill="#66A865"/>
<path d="M354.092 407.351L393.777 476.086H314.408L354.092 407.351Z" fill="#83C082"/>
<path d="M369.346 433.527H338.846L334.346 441.027H373.846L369.346 433.527Z" fill="#458244"/>
<path d="M376.117 476.027H332.04L327.846 483.027H380.346L376.117 476.027Z" fill="#458244"/>
<path d="M354.614 379.151L386.158 433.787H323.07L354.614 379.151Z" fill="#66A865"/>
<path d="M354.614 356L380.43 400.714H328.799L354.614 356Z" fill="#83C082"/>
<path d="M366.846 400.527H342.346L337.846 408.027H371.346L366.846 400.527Z" fill="#458244"/>
<path d="M439.433 402.151C452.865 402.151 463.755 413.04 463.755 426.473V428.21C463.755 429.124 463.702 430.025 463.604 430.912C473.728 433.853 481.128 443.197 481.128 454.27V456.007C481.128 469.44 470.238 480.33 456.806 480.33C449.54 480.33 443.02 477.143 438.563 472.092C434.107 477.143 427.587 480.33 420.322 480.33C406.89 480.33 396 469.44 396 456.007V454.27C396 442.589 404.235 432.832 415.217 430.486C415.147 429.737 415.11 428.978 415.11 428.21V426.473C415.11 413.04 426 402.151 439.433 402.151Z" fill="#66A865"/>
<path d="M436.914 503.695C426.998 495.45 425.643 480.729 433.887 470.812L434.953 469.53C435.514 468.856 436.106 468.223 436.723 467.628C431.055 459.243 431.326 447.804 438.122 439.63L439.189 438.347C447.433 428.431 462.155 427.076 472.071 435.32C477.434 439.779 480.292 446.133 480.482 452.597C486.872 451.604 493.64 453.254 499.004 457.713C508.92 465.957 510.275 480.679 502.03 490.595L500.964 491.877C493.795 500.501 481.727 502.649 472.181 497.641C471.772 498.236 471.333 498.819 470.862 499.385L469.796 500.668C461.552 510.584 446.83 511.939 436.914 503.695Z" fill="#66A865"/>
<path d="M488.56 394.043C502.142 394.043 513.152 405.054 513.152 418.636V420.392C513.152 421.316 513.099 422.227 513 423.125C523.236 426.099 530.718 435.546 530.718 446.742V448.499C530.718 462.08 519.708 473.09 506.126 473.09C498.78 473.09 492.187 469.869 487.681 464.762C483.174 469.868 476.583 473.09 469.237 473.09C455.655 473.09 444.645 462.08 444.645 448.499V446.742C444.645 434.931 452.971 425.065 464.074 422.693C464.004 421.935 463.967 421.168 463.967 420.392V418.636C463.967 405.054 474.978 394.043 488.56 394.043Z" fill="#66A865"/>
<path d="M487.871 382.629C501.453 382.629 512.464 393.64 512.464 407.222V408.978C512.464 409.901 512.411 410.813 512.312 411.71C522.548 414.684 530.029 424.131 530.029 435.327V437.084C530.029 450.666 519.019 461.676 505.438 461.676C498.091 461.676 491.498 458.454 486.992 453.348C482.486 458.454 475.894 461.676 468.549 461.676C454.967 461.676 443.956 450.666 443.956 437.084V435.327C443.956 423.516 452.283 413.65 463.386 411.278C463.315 410.521 463.278 409.753 463.278 408.978V407.222C463.278 393.64 474.289 382.629 487.871 382.629Z" fill="#66A865"/>
<path d="M443.609 379.322C454.753 379.322 463.787 388.356 463.787 399.5V400.942C463.787 401.699 463.743 402.446 463.662 403.182C472.061 405.622 478.201 413.374 478.201 422.561V424.002C478.201 435.146 469.166 444.181 458.022 444.181C451.995 444.181 446.586 441.537 442.888 437.347C439.191 441.537 433.782 444.181 427.754 444.181C416.61 444.181 407.576 435.146 407.576 424.002V422.561C407.576 412.87 414.408 404.775 423.518 402.828C423.46 402.207 423.43 401.578 423.43 400.942V399.5C423.43 388.356 432.465 379.322 443.609 379.322Z" fill="#66A865"/>
<path d="M458.841 399.166C469.581 399.166 478.288 407.872 478.288 418.613V420.002C478.288 420.733 478.245 421.453 478.167 422.163C486.262 424.514 492.18 431.985 492.18 440.839V442.228C492.18 452.969 483.472 461.676 472.731 461.676C466.922 461.676 461.709 459.128 458.145 455.089C454.582 459.128 449.369 461.676 443.56 461.676C432.82 461.676 424.112 452.969 424.112 442.228V440.839C424.112 431.499 430.697 423.698 439.477 421.822C439.422 421.223 439.392 420.616 439.392 420.002V418.613C439.393 407.872 448.1 399.166 458.841 399.166Z" fill="#66A865"/>
<path d="M529.465 429.998C530.036 432.077 530.342 434.265 530.342 436.526V438.283C530.342 439.335 530.275 440.372 530.147 441.389C530.722 443.475 531.03 445.672 531.03 447.941V449.698C531.03 462.893 520.637 473.659 507.591 474.261C508.274 480.355 506.572 486.707 502.343 491.794L501.276 493.077C494.107 501.7 482.039 503.848 472.493 498.84C472.085 499.436 471.645 500.018 471.175 500.584L470.108 501.868C461.864 511.783 447.142 513.138 437.226 504.894C429.647 498.592 427.069 488.506 429.957 479.674C427.086 480.868 423.938 481.529 420.635 481.529C407.202 481.529 396.312 470.639 396.312 457.207V455.469C396.312 450.558 397.771 445.989 400.274 442.167C404.618 448.799 412.114 453.182 420.635 453.182C424.716 453.182 428.562 452.176 431.939 450.399C433.348 453.359 435.405 456.069 438.092 458.302C448.008 466.546 462.73 465.191 470.974 455.275L472.041 453.993C472.512 453.426 472.951 452.843 473.359 452.248C482.905 457.255 494.973 455.108 502.142 446.485L502.814 445.675C503.997 445.85 505.207 445.943 506.438 445.943C516.977 445.943 525.965 439.313 529.465 429.998Z" fill="#458244"/>
<path d="M457.895 466H469.471L478.905 556.109H448.312L457.895 466Z" fill="#93642D"/>
<path d="M457.812 466H469.554L474.525 514.5H452.812L457.812 466Z" fill="#714D22"/>
<path fill-rule="evenodd" clip-rule="evenodd" d="M454.644 504.397C436.541 491.363 434.34 471.778 435.607 463.229L443.786 464.44C442.847 470.774 444.505 486.909 459.475 497.687L454.644 504.397Z" fill="#714D22"/>
<path fill-rule="evenodd" clip-rule="evenodd" d="M468.317 491.168C486.42 478.133 488.621 458.549 487.354 450L479.175 451.211C480.114 457.545 478.456 473.679 463.486 484.458L468.317 491.168Z" fill="#714D22"/>
<path d="M459.3 418C468.265 418 475.533 425.268 475.533 434.233V435.392C475.533 436.001 475.498 436.603 475.432 437.195C482.189 439.158 487.128 445.395 487.128 452.785V453.944C487.128 462.909 479.86 470.177 470.894 470.177C466.045 470.177 461.694 468.05 458.719 464.679C455.745 468.05 451.394 470.177 446.546 470.177C437.58 470.177 430.312 462.909 430.312 453.944V452.785C430.312 444.988 435.808 438.476 443.137 436.911C443.091 436.411 443.067 435.904 443.067 435.392V434.233C443.067 425.268 450.334 418 459.3 418Z" fill="#66A865"/>
<path d="M483.627 429.612C489.909 429.612 495.002 434.705 495.002 440.988V441.8C495.002 442.228 494.975 442.65 494.929 443.066C499.665 444.441 503.128 448.809 503.128 453.989V454.801C503.128 461.084 498.034 466.177 491.752 466.177C488.353 466.177 485.304 464.685 483.219 462.322C481.135 464.685 478.087 466.177 474.688 466.177C468.405 466.177 463.312 461.084 463.312 454.801V453.989C463.312 448.525 467.165 443.963 472.301 442.866C472.269 442.515 472.251 442.16 472.251 441.8V440.988C472.251 434.705 477.344 429.612 483.627 429.612Z" fill="#66A865"/>
<path d="M461.018 429.716C455.974 436.941 446.028 438.709 438.803 433.665L437.869 433.014C437.378 432.671 436.913 432.303 436.473 431.917C431.089 436.258 423.285 436.73 417.329 432.572L416.394 431.919C409.17 426.875 407.401 416.93 412.445 409.705C415.173 405.797 419.335 403.486 423.725 402.985C422.683 398.692 423.417 393.989 426.145 390.082C431.189 382.857 441.135 381.089 448.36 386.133L449.294 386.785C455.577 391.171 457.733 399.265 454.872 406.052C455.3 406.296 455.722 406.562 456.135 406.85L457.068 407.501C464.293 412.545 466.062 422.491 461.018 429.716Z" fill="#83C082"/>
<rect x="3" y="300" width="300" height="300" fill="#BCE8BB"/>
<rect x="260" y="480.672" width="16.4495" height="77.5479" fill="#93642D"/>
<rect x="260.044" y="452" width="16.4495" height="77.5479" fill="#714D22"/>
<rect x="239.034" y="450.337" width="59.5317" height="59.5317" rx="29.7659" fill="#83C082"/>
<rect x="242.031" y="412.427" width="54.4795" height="54.4795" rx="27.2397" fill="#66A865"/>
<rect x="246.026" y="383" width="46.0735" height="46.0735" rx="23.0368" fill="#83C082"/>
<path d="M298.312 476.883C298.456 478.068 298.531 479.276 298.531 480.5C298.531 496.939 285.205 510.266 268.766 510.266C252.327 510.266 239 496.939 239 480.5C239 479.276 239.075 478.068 239.219 476.883C241.004 491.616 253.551 503.031 268.766 503.031C283.98 503.031 296.528 491.616 298.312 476.883Z" fill="#679A66"/>
<rect x="46.3025" y="480.198" width="16.4495" height="77.5479" fill="#93642D"/>
<rect x="46.3464" y="451.527" width="16.4495" height="77.5479" fill="#714D22"/>
<path d="M54.0485 437.9L100.856 518.972H7.24113L54.0485 437.9Z" fill="#66A865"/>
<path d="M54.0921 407.351L93.7766 476.086H14.4075L54.0921 407.351Z" fill="#83C082"/>
<path d="M69.3463 433.527H38.8463L34.3463 441.027H73.8463L69.3463 433.527Z" fill="#458244"/>
<path d="M76.1174 476.027H32.0397L27.8463 483.027H80.3463L76.1174 476.027Z" fill="#458244"/>
<path d="M54.6142 379.151L86.1583 433.787H23.0701L54.6142 379.151Z" fill="#66A865"/>
<path d="M54.6143 356L80.43 400.714H28.7986L54.6143 356Z" fill="#83C082"/>
<path d="M66.8463 400.527H42.3463L37.8463 408.027H71.3463L66.8463 400.527Z" fill="#458244"/>
<path d="M139.433 402.151C152.865 402.151 163.755 413.04 163.755 426.473V428.21C163.755 429.124 163.702 430.025 163.604 430.912C173.728 433.853 181.128 443.197 181.128 454.27V456.007C181.128 469.44 170.238 480.33 156.806 480.33C149.54 480.33 143.02 477.143 138.563 472.092C134.107 477.143 127.587 480.33 120.322 480.33C106.89 480.33 96.0001 469.44 96 456.007V454.27C96 442.589 104.235 432.832 115.217 430.486C115.147 429.737 115.11 428.978 115.11 428.21V426.473C115.11 413.04 126 402.151 139.433 402.151Z" fill="#66A865"/>
<path d="M136.914 503.695C126.998 495.45 125.643 480.729 133.887 470.812L134.953 469.53C135.514 468.856 136.106 468.223 136.723 467.628C131.055 459.243 131.326 447.804 138.122 439.63L139.189 438.347C147.433 428.431 162.155 427.076 172.071 435.32C177.434 439.779 180.292 446.133 180.482 452.597C186.872 451.604 193.64 453.254 199.004 457.713C208.92 465.957 210.275 480.679 202.03 490.595L200.964 491.877C193.795 500.501 181.727 502.649 172.181 497.641C171.772 498.236 171.333 498.819 170.862 499.385L169.796 500.668C161.552 510.584 146.83 511.939 136.914 503.695Z" fill="#66A865"/>
<path d="M188.56 394.043C202.142 394.043 213.152 405.054 213.152 418.636V420.392C213.152 421.316 213.099 422.227 213 423.125C223.236 426.099 230.718 435.546 230.718 446.742V448.499C230.718 462.08 219.708 473.09 206.126 473.09C198.78 473.09 192.187 469.869 187.681 464.762C183.174 469.868 176.583 473.09 169.237 473.09C155.655 473.09 144.645 462.08 144.645 448.499V446.742C144.645 434.931 152.971 425.065 164.074 422.693C164.004 421.935 163.967 421.168 163.967 420.392V418.636C163.967 405.054 174.978 394.043 188.56 394.043Z" fill="#66A865"/>
<path d="M187.871 382.629C201.453 382.629 212.464 393.64 212.464 407.222V408.978C212.464 409.901 212.411 410.813 212.312 411.71C222.548 414.684 230.029 424.131 230.029 435.327V437.084C230.029 450.666 219.019 461.676 205.438 461.676C198.091 461.676 191.498 458.454 186.992 453.348C182.486 458.454 175.894 461.676 168.549 461.676C154.967 461.676 143.956 450.666 143.956 437.084V435.327C143.956 423.516 152.283 413.65 163.386 411.278C163.315 410.521 163.278 409.753 163.278 408.978V407.222C163.278 393.64 174.289 382.629 187.871 382.629Z" fill="#66A865"/>
<path d="M143.609 379.322C154.753 379.322 163.787 388.356 163.787 399.5V400.942C163.787 401.699 163.743 402.446 163.662 403.182C172.061 405.622 178.201 413.374 178.201 422.561V424.002C178.201 435.146 169.166 444.181 158.022 444.181C151.995 444.181 146.586 441.537 142.888 437.347C139.191 441.537 133.782 444.181 127.754 444.181C116.61 444.181 107.576 435.146 107.576 424.002V422.561C107.576 412.87 114.408 404.775 123.518 402.828C123.46 402.207 123.43 401.578 123.43 400.942V399.5C123.43 388.356 132.465 379.322 143.609 379.322Z" fill="#66A865"/>
<path d="M158.841 399.166C169.581 399.166 178.288 407.872 178.288 418.613V420.002C178.288 420.733 178.245 421.453 178.167 422.163C186.262 424.514 192.18 431.985 192.18 440.839V442.228C192.18 452.969 183.472 461.676 172.731 461.676C166.922 461.676 161.709 459.128 158.145 455.089C154.582 459.128 149.369 461.676 143.56 461.676C132.82 461.676 124.112 452.969 124.112 442.228V440.839C124.112 431.499 130.697 423.698 139.477 421.822C139.422 421.223 139.392 420.616 139.392 420.002V418.613C139.393 407.872 148.1 399.166 158.841 399.166Z" fill="#66A865"/>
<path d="M229.465 429.998C230.036 432.077 230.342 434.265 230.342 436.526V438.283C230.342 439.335 230.275 440.372 230.147 441.389C230.722 443.475 231.03 445.672 231.03 447.941V449.698C231.03 462.893 220.637 473.659 207.591 474.261C208.274 480.355 206.572 486.707 202.343 491.794L201.276 493.077C194.107 501.7 182.039 503.848 172.493 498.84C172.085 499.436 171.645 500.018 171.175 500.584L170.108 501.868C161.864 511.783 147.142 513.138 137.226 504.894C129.647 498.592 127.069 488.506 129.957 479.674C127.086 480.868 123.938 481.529 120.635 481.529C107.202 481.529 96.3124 470.639 96.3123 457.207V455.469C96.3123 450.558 97.7708 445.989 100.274 442.167C104.618 448.799 112.114 453.182 120.635 453.182C124.716 453.182 128.562 452.176 131.939 450.399C133.348 453.359 135.405 456.069 138.092 458.302C148.008 466.546 162.73 465.191 170.974 455.275L172.041 453.993C172.512 453.426 172.951 452.843 173.359 452.248C182.905 457.255 194.973 455.108 202.142 446.485L202.814 445.675C203.997 445.85 205.207 445.943 206.438 445.943C216.977 445.943 225.965 439.313 229.465 429.998Z" fill="#458244"/>
<path d="M157.895 466H169.471L178.905 556.109H148.312L157.895 466Z" fill="#93642D"/>
<path d="M157.812 466H169.554L174.525 514.5H152.812L157.812 466Z" fill="#714D22"/>
<path fill-rule="evenodd" clip-rule="evenodd" d="M154.644 504.397C136.541 491.363 134.34 471.778 135.607 463.229L143.786 464.44C142.847 470.774 144.505 486.909 159.475 497.687L154.644 504.397Z" fill="#714D22"/>
<path fill-rule="evenodd" clip-rule="evenodd" d="M168.317 491.168C186.42 478.133 188.621 458.549 187.354 450L179.175 451.211C180.114 457.545 178.456 473.679 163.486 484.458L168.317 491.168Z" fill="#714D22"/>
<path d="M159.3 418C168.265 418 175.533 425.268 175.533 434.233V435.392C175.533 436.001 175.498 436.603 175.432 437.195C182.189 439.158 187.128 445.395 187.128 452.785V453.944C187.128 462.909 179.86 470.177 170.894 470.177C166.045 470.177 161.694 468.05 158.719 464.679C155.745 468.05 151.394 470.177 146.546 470.177C137.58 470.177 130.312 462.909 130.312 453.944V452.785C130.312 444.988 135.808 438.476 143.137 436.911C143.091 436.411 143.067 435.904 143.067 435.392V434.233C143.067 425.268 150.334 418 159.3 418Z" fill="#66A865"/>
<path d="M183.627 429.612C189.909 429.612 195.002 434.705 195.002 440.988V441.8C195.002 442.228 194.975 442.65 194.929 443.066C199.665 444.441 203.128 448.809 203.128 453.989V454.801C203.128 461.084 198.034 466.177 191.752 466.177C188.353 466.177 185.304 464.685 183.219 462.322C181.135 464.685 178.087 466.177 174.688 466.177C168.405 466.177 163.312 461.084 163.312 454.801V453.989C163.312 448.525 167.165 443.963 172.301 442.866C172.269 442.515 172.251 442.16 172.251 441.8V440.988C172.251 434.705 177.344 429.612 183.627 429.612Z" fill="#66A865"/>
<path d="M161.018 429.716C155.974 436.941 146.028 438.709 138.803 433.665L137.869 433.014C137.378 432.671 136.913 432.303 136.473 431.917C131.089 436.258 123.285 436.73 117.329 432.572L116.394 431.919C109.17 426.875 107.401 416.93 112.445 409.705C115.173 405.797 119.335 403.486 123.725 402.985C122.683 398.692 123.417 393.989 126.145 390.082C131.189 382.857 141.135 381.089 148.36 386.133L149.294 386.785C155.577 391.171 157.733 399.265 154.872 406.052C155.3 406.296 155.722 406.562 156.135 406.85L157.068 407.501C164.293 412.545 166.062 422.491 161.018 429.716Z" fill="#83C082"/>
<rect x="3" width="300" height="300" fill="#BCE8BB"/>
<rect x="260" y="180.672" width="16.4495" height="77.5479" fill="#93642D"/>
<rect x="260.044" y="152" width="16.4495" height="77.5479" fill="#714D22"/>
<rect x="239.034" y="150.337" width="59.5317" height="59.5317" rx="29.7659" fill="#83C082"/>
<rect x="242.031" y="112.427" width="54.4795" height="54.4795" rx="27.2397" fill="#66A865"/>
<rect x="246.026" y="83" width="46.0735" height="46.0735" rx="23.0368" fill="#83C082"/>
<path d="M298.312 176.883C298.456 178.068 298.531 179.276 298.531 180.5C298.531 196.939 285.205 210.266 268.766 210.266C252.327 210.266 239 196.939 239 180.5C239 179.276 239.075 178.068 239.219 176.883C241.004 191.616 253.551 203.031 268.766 203.031C283.98 203.031 296.528 191.616 298.312 176.883Z" fill="#679A66"/>
<rect x="46.3025" y="180.198" width="16.4495" height="77.5479" fill="#93642D"/>
<rect x="46.3464" y="151.527" width="16.4495" height="77.5479" fill="#714D22"/>
<path d="M54.0485 137.9L100.856 218.972H7.24113L54.0485 137.9Z" fill="#66A865"/>
<path d="M54.0921 107.351L93.7766 176.086H14.4075L54.0921 107.351Z" fill="#83C082"/>
<path d="M69.3463 133.527H38.8463L34.3463 141.027H73.8463L69.3463 133.527Z" fill="#458244"/>
<path d="M76.1174 176.027H32.0397L27.8463 183.027H80.3463L76.1174 176.027Z" fill="#458244"/>
<path d="M54.6142 79.1511L86.1583 133.787H23.0701L54.6142 79.1511Z" fill="#66A865"/>
<path d="M54.6143 56L80.43 100.714H28.7986L54.6143 56Z" fill="#83C082"/>
<path d="M66.8463 100.527H42.3463L37.8463 108.027H71.3463L66.8463 100.527Z" fill="#458244"/>
<path d="M139.433 102.151C152.865 102.151 163.755 113.041 163.755 126.473V128.211C163.755 129.124 163.702 130.025 163.604 130.912C173.728 133.853 181.128 143.197 181.128 154.27V156.008C181.128 169.44 170.238 180.33 156.806 180.33C149.54 180.33 143.02 177.143 138.563 172.093C134.107 177.143 127.587 180.33 120.322 180.33C106.89 180.33 96.0001 169.44 96 156.008V154.27C96 142.589 104.235 132.832 115.217 130.486C115.147 129.737 115.11 128.978 115.11 128.211V126.473C115.11 113.041 126 102.151 139.433 102.151Z" fill="#66A865"/>
<path d="M136.914 203.695C126.998 195.451 125.643 180.729 133.887 170.813L134.953 169.53C135.514 168.856 136.106 168.223 136.723 167.628C131.055 159.243 131.326 147.804 138.122 139.63L139.189 138.347C147.433 128.431 162.155 127.076 172.071 135.321C177.434 139.78 180.292 146.133 180.482 152.597C186.872 151.604 193.64 153.254 199.004 157.713C208.92 165.957 210.275 180.679 202.03 190.595L200.964 191.878C193.795 200.501 181.727 202.649 172.181 197.641C171.772 198.237 171.333 198.819 170.862 199.386L169.796 200.668C161.552 210.584 146.83 211.939 136.914 203.695Z" fill="#66A865"/>
<path d="M188.56 94.0437C202.142 94.0437 213.152 105.054 213.152 118.636V120.392C213.152 121.316 213.099 122.228 213 123.125C223.236 126.099 230.718 135.546 230.718 146.742V148.499C230.718 162.081 219.708 173.09 206.126 173.091C198.78 173.091 192.187 169.869 187.681 164.762C183.174 169.869 176.583 173.09 169.237 173.091C155.655 173.091 144.645 162.081 144.645 148.499V146.742C144.645 134.931 152.971 125.065 164.074 122.693C164.004 121.936 163.967 121.168 163.967 120.392V118.636C163.967 105.054 174.978 94.0437 188.56 94.0437Z" fill="#66A865"/>
<path d="M187.871 82.6292C201.453 82.6292 212.464 93.6399 212.464 107.222V108.978C212.464 109.901 212.411 110.813 212.312 111.71C222.548 114.685 230.029 124.132 230.029 135.327V137.084C230.029 150.666 219.019 161.676 205.438 161.676C198.091 161.676 191.498 158.455 186.992 153.348C182.486 158.454 175.894 161.676 168.549 161.676C154.967 161.676 143.956 150.666 143.956 137.084V135.327C143.956 123.516 152.283 113.651 163.386 111.279C163.315 110.521 163.278 109.754 163.278 108.978V107.222C163.278 93.6399 174.289 82.6292 187.871 82.6292Z" fill="#66A865"/>
<path d="M143.609 79.3218C154.753 79.3219 163.787 88.3563 163.787 99.5005V100.942C163.787 101.699 163.743 102.446 163.662 103.182C172.061 105.622 178.201 113.375 178.201 122.561V124.002C178.201 135.147 169.166 144.181 158.022 144.181C151.995 144.181 146.586 141.537 142.888 137.347C139.191 141.537 133.782 144.181 127.754 144.181C116.61 144.181 107.576 135.147 107.576 124.002V122.561C107.576 112.87 114.408 104.775 123.518 102.829C123.46 102.207 123.43 101.578 123.43 100.942V99.5005C123.43 88.3563 132.465 79.3218 143.609 79.3218Z" fill="#66A865"/>
<path d="M158.841 99.1655C169.581 99.1657 178.288 107.872 178.288 118.613V120.002C178.288 120.733 178.245 121.453 178.167 122.163C186.262 124.514 192.18 131.985 192.18 140.839V142.228C192.18 152.969 183.472 161.676 172.731 161.676C166.922 161.676 161.709 159.128 158.145 155.089C154.582 159.128 149.369 161.676 143.56 161.676C132.82 161.676 124.112 152.969 124.112 142.228V140.839C124.112 131.499 130.697 123.698 139.477 121.822C139.422 121.223 139.392 120.616 139.392 120.002V118.613C139.393 107.872 148.1 99.1655 158.841 99.1655Z" fill="#66A865"/>
<path d="M229.465 129.998C230.036 132.077 230.342 134.266 230.342 136.526V138.283C230.342 139.335 230.275 140.372 230.147 141.389C230.722 143.475 231.03 145.672 231.03 147.941V149.698C231.03 162.893 220.637 173.659 207.591 174.261C208.274 180.355 206.572 186.707 202.343 191.795L201.276 193.077C194.107 201.7 182.039 203.849 172.493 198.841C172.085 199.436 171.645 200.018 171.175 200.585L170.108 201.868C161.864 211.783 147.142 213.138 137.226 204.894C129.647 198.593 127.069 188.506 129.957 179.675C127.086 180.868 123.938 181.529 120.635 181.529C107.202 181.529 96.3124 170.639 96.3123 157.207V155.469C96.3123 150.558 97.7708 145.99 100.274 142.167C104.618 148.8 112.114 153.182 120.635 153.182C124.716 153.182 128.562 152.176 131.939 150.399C133.348 153.359 135.405 156.069 138.092 158.302C148.008 166.547 162.73 165.191 170.974 155.275L172.041 153.993C172.512 153.427 172.951 152.843 173.359 152.248C182.905 157.256 194.973 155.108 202.142 146.485L202.814 145.676C203.997 145.85 205.207 145.943 206.438 145.943C216.977 145.943 225.965 139.313 229.465 129.998Z" fill="#458244"/>
<path d="M157.895 166H169.471L178.905 256.109H148.312L157.895 166Z" fill="#93642D"/>
<path d="M157.812 166H169.554L174.525 214.5H152.812L157.812 166Z" fill="#714D22"/>
<path fill-rule="evenodd" clip-rule="evenodd" d="M154.644 204.397C136.541 191.363 134.34 171.778 135.607 163.229L143.786 164.441C142.847 170.774 144.505 186.909 159.475 197.687L154.644 204.397Z" fill="#714D22"/>
<path fill-rule="evenodd" clip-rule="evenodd" d="M168.317 191.168C186.42 178.134 188.621 158.549 187.354 150L179.175 151.211C180.114 157.545 178.456 173.68 163.486 184.458L168.317 191.168Z" fill="#714D22"/>
<path d="M159.3 118C168.265 118 175.533 125.268 175.533 134.233V135.392C175.533 136.002 175.498 136.603 175.432 137.195C182.189 139.158 187.128 145.395 187.128 152.785V153.944C187.128 162.909 179.86 170.177 170.894 170.177C166.045 170.177 161.694 168.05 158.719 164.679C155.745 168.05 151.394 170.177 146.546 170.177C137.58 170.177 130.312 162.909 130.312 153.944V152.785C130.312 144.989 135.808 138.477 143.137 136.911C143.091 136.411 143.067 135.904 143.067 135.392V134.233C143.067 125.268 150.334 118 159.3 118Z" fill="#66A865"/>
<path d="M183.627 129.612C189.909 129.612 195.002 134.705 195.002 140.988V141.801C195.002 142.228 194.975 142.651 194.929 143.066C199.665 144.442 203.128 148.81 203.128 153.989V154.802C203.128 161.084 198.034 166.177 191.752 166.177C188.353 166.177 185.304 164.685 183.219 162.322C181.135 164.685 178.087 166.177 174.688 166.177C168.405 166.177 163.312 161.084 163.312 154.802V153.989C163.312 148.525 167.165 143.963 172.301 142.866C172.269 142.515 172.251 142.16 172.251 141.801V140.988C172.251 134.705 177.344 129.612 183.627 129.612Z" fill="#66A865"/>
<path d="M161.018 129.716C155.974 136.941 146.028 138.71 138.803 133.666L137.869 133.014C137.378 132.671 136.913 132.303 136.473 131.917C131.089 136.259 123.285 136.73 117.329 132.572L116.394 131.92C109.17 126.876 107.401 116.93 112.445 109.705C115.173 105.797 119.335 103.486 123.725 102.986C122.683 98.6923 123.417 93.9892 126.145 90.0818C131.189 82.8571 141.135 81.0889 148.36 86.1328L149.294 86.7852C155.577 91.1715 157.733 99.265 154.872 106.052C155.3 106.296 155.722 106.562 156.135 106.85L157.068 107.502C164.293 112.546 166.062 122.491 161.018 129.716Z" fill="#83C082"/>
</svg>
