<svg width="1201" height="300" viewBox="0 0 1201 300" fill="none" xmlns="http://www.w3.org/2000/svg">
<rect x="303" width="300" height="300" fill="#BCE8BB"/>
<rect x="557" y="180.672" width="16.4495" height="77.5479" fill="#93642D"/>
<rect x="557.044" y="152" width="16.4495" height="77.5479" fill="#714D22"/>
<rect x="536.034" y="150.337" width="59.5317" height="59.5317" rx="29.7659" fill="#83C082"/>
<rect x="539.031" y="112.427" width="54.4795" height="54.4795" rx="27.2397" fill="#66A865"/>
<rect x="543.026" y="83" width="46.0735" height="46.0735" rx="23.0368" fill="#83C082"/>
<path d="M595.312 176.883C595.456 178.068 595.531 179.276 595.531 180.5C595.531 196.939 582.205 210.266 565.766 210.266C549.327 210.266 536 196.939 536 180.5C536 179.276 536.075 178.068 536.219 176.883C538.004 191.616 550.551 203.031 565.766 203.031C580.98 203.031 593.528 191.616 595.312 176.883Z" fill="#679A66"/>
<rect x="343.302" y="180.198" width="16.4495" height="77.5479" fill="#93642D"/>
<rect x="343.346" y="151.527" width="16.4495" height="77.5479" fill="#714D22"/>
<path d="M351.049 137.9L397.856 218.972H304.241L351.049 137.9Z" fill="#66A865"/>
<path d="M351.092 107.351L390.777 176.086H311.408L351.092 107.351Z" fill="#83C082"/>
<path d="M366.346 133.527H335.846L331.346 141.027H370.846L366.346 133.527Z" fill="#458244"/>
<path d="M373.117 176.027H329.04L324.846 183.027H377.346L373.117 176.027Z" fill="#458244"/>
<path d="M351.614 79.1511L383.158 133.787H320.07L351.614 79.1511Z" fill="#66A865"/>
<path d="M351.614 56L377.43 100.714H325.799L351.614 56Z" fill="#83C082"/>
<path d="M363.846 100.527H339.346L334.846 108.027H368.346L363.846 100.527Z" fill="#458244"/>
<path d="M436.433 102.151C449.865 102.151 460.755 113.041 460.755 126.473V128.211C460.755 129.124 460.702 130.025 460.604 130.912C470.728 133.853 478.128 143.197 478.128 154.27V156.008C478.128 169.44 467.238 180.33 453.806 180.33C446.54 180.33 440.02 177.143 435.563 172.093C431.107 177.143 424.587 180.33 417.322 180.33C403.89 180.33 393 169.44 393 156.008V154.27C393 142.589 401.235 132.832 412.217 130.486C412.147 129.737 412.11 128.978 412.11 128.211V126.473C412.11 113.041 423 102.151 436.433 102.151Z" fill="#66A865"/>
<path d="M433.914 203.695C423.998 195.451 422.643 180.729 430.887 170.813L431.953 169.53C432.514 168.856 433.106 168.223 433.723 167.628C428.055 159.243 428.326 147.804 435.122 139.63L436.189 138.347C444.433 128.431 459.155 127.076 469.071 135.321C474.434 139.78 477.292 146.133 477.482 152.597C483.872 151.604 490.64 153.254 496.004 157.713C505.92 165.957 507.275 180.679 499.03 190.595L497.964 191.878C490.795 200.501 478.727 202.649 469.181 197.641C468.772 198.237 468.333 198.819 467.862 199.386L466.796 200.668C458.552 210.584 443.83 211.939 433.914 203.695Z" fill="#66A865"/>
<path d="M485.56 94.0437C499.142 94.0437 510.152 105.054 510.152 118.636V120.392C510.152 121.316 510.099 122.228 510 123.125C520.236 126.099 527.718 135.546 527.718 146.742V148.499C527.718 162.081 516.708 173.09 503.126 173.091C495.78 173.091 489.187 169.869 484.681 164.762C480.174 169.869 473.583 173.09 466.237 173.091C452.655 173.091 441.645 162.081 441.645 148.499V146.742C441.645 134.931 449.971 125.065 461.074 122.693C461.004 121.936 460.967 121.168 460.967 120.392V118.636C460.967 105.054 471.978 94.0437 485.56 94.0437Z" fill="#66A865"/>
<path d="M484.871 82.6292C498.453 82.6292 509.464 93.6399 509.464 107.222V108.978C509.464 109.901 509.411 110.813 509.312 111.71C519.548 114.685 527.029 124.132 527.029 135.327V137.084C527.029 150.666 516.019 161.676 502.438 161.676C495.091 161.676 488.498 158.455 483.992 153.348C479.486 158.454 472.894 161.676 465.549 161.676C451.967 161.676 440.956 150.666 440.956 137.084V135.327C440.956 123.516 449.283 113.651 460.386 111.279C460.315 110.521 460.278 109.754 460.278 108.978V107.222C460.278 93.6399 471.289 82.6292 484.871 82.6292Z" fill="#66A865"/>
<path d="M440.609 79.3218C451.753 79.3219 460.787 88.3563 460.787 99.5005V100.942C460.787 101.699 460.743 102.446 460.662 103.182C469.061 105.622 475.201 113.375 475.201 122.561V124.002C475.201 135.147 466.166 144.181 455.022 144.181C448.995 144.181 443.586 141.537 439.888 137.347C436.191 141.537 430.782 144.181 424.754 144.181C413.61 144.181 404.576 135.147 404.576 124.002V122.561C404.576 112.87 411.408 104.775 420.518 102.829C420.46 102.207 420.43 101.578 420.43 100.942V99.5005C420.43 88.3562 429.465 79.3218 440.609 79.3218Z" fill="#66A865"/>
<path d="M455.841 99.1655C466.581 99.1657 475.288 107.872 475.288 118.613V120.002C475.288 120.733 475.245 121.453 475.167 122.163C483.262 124.514 489.18 131.985 489.18 140.839V142.228C489.18 152.969 480.472 161.676 469.731 161.676C463.922 161.676 458.709 159.128 455.145 155.089C451.582 159.128 446.369 161.676 440.56 161.676C429.82 161.676 421.112 152.969 421.112 142.228V140.839C421.112 131.499 427.697 123.698 436.477 121.822C436.422 121.223 436.392 120.616 436.392 120.002V118.613C436.393 107.872 445.1 99.1655 455.841 99.1655Z" fill="#66A865"/>
<path d="M526.465 129.998C527.036 132.077 527.342 134.266 527.342 136.526V138.283C527.342 139.335 527.275 140.372 527.147 141.389C527.722 143.475 528.03 145.672 528.03 147.941V149.698C528.03 162.893 517.637 173.659 504.591 174.261C505.274 180.355 503.572 186.707 499.343 191.795L498.276 193.077C491.107 201.7 479.039 203.849 469.493 198.841C469.085 199.436 468.645 200.018 468.175 200.585L467.108 201.868C458.864 211.783 444.142 213.138 434.226 204.894C426.647 198.593 424.069 188.506 426.957 179.675C424.086 180.868 420.938 181.529 417.635 181.529C404.202 181.529 393.312 170.639 393.312 157.207V155.469C393.312 150.558 394.771 145.99 397.274 142.167C401.618 148.8 409.114 153.182 417.635 153.182C421.716 153.182 425.562 152.176 428.939 150.399C430.348 153.359 432.405 156.069 435.092 158.302C445.008 166.547 459.73 165.191 467.974 155.275L469.041 153.993C469.512 153.427 469.951 152.843 470.359 152.248C479.905 157.256 491.973 155.108 499.142 146.485L499.814 145.676C500.997 145.85 502.207 145.943 503.438 145.943C513.977 145.943 522.965 139.313 526.465 129.998Z" fill="#458244"/>
<path d="M454.895 166H466.471L475.905 256.109H445.312L454.895 166Z" fill="#93642D"/>
<path d="M454.812 166H466.554L471.525 214.5H449.812L454.812 166Z" fill="#714D22"/>
<path fill-rule="evenodd" clip-rule="evenodd" d="M451.644 204.397C433.541 191.363 431.34 171.778 432.607 163.229L440.786 164.441C439.847 170.774 441.505 186.909 456.475 197.687L451.644 204.397Z" fill="#714D22"/>
<path fill-rule="evenodd" clip-rule="evenodd" d="M465.317 191.168C483.42 178.134 485.621 158.549 484.354 150L476.175 151.211C477.114 157.545 475.456 173.68 460.486 184.458L465.317 191.168Z" fill="#714D22"/>
<path d="M456.3 118C465.265 118 472.533 125.268 472.533 134.233V135.392C472.533 136.002 472.498 136.603 472.432 137.195C479.189 139.158 484.128 145.395 484.128 152.785V153.944C484.128 162.909 476.86 170.177 467.894 170.177C463.045 170.177 458.694 168.05 455.719 164.679C452.745 168.05 448.394 170.177 443.546 170.177C434.58 170.177 427.312 162.909 427.312 153.944V152.785C427.312 144.989 432.808 138.477 440.137 136.911C440.091 136.411 440.067 135.904 440.067 135.392V134.233C440.067 125.268 447.334 118 456.3 118Z" fill="#66A865"/>
<path d="M480.627 129.612C486.909 129.612 492.002 134.705 492.002 140.988V141.801C492.002 142.228 491.975 142.651 491.929 143.066C496.665 144.442 500.128 148.81 500.128 153.989V154.802C500.128 161.084 495.034 166.177 488.752 166.177C485.353 166.177 482.304 164.685 480.219 162.322C478.135 164.685 475.087 166.177 471.688 166.177C465.405 166.177 460.312 161.084 460.312 154.802V153.989C460.312 148.525 464.165 143.963 469.301 142.866C469.269 142.515 469.251 142.16 469.251 141.801V140.988C469.251 134.705 474.344 129.612 480.627 129.612Z" fill="#66A865"/>
<path d="M458.018 129.716C452.974 136.941 443.028 138.71 435.803 133.666L434.869 133.014C434.378 132.671 433.913 132.303 433.473 131.917C428.089 136.259 420.285 136.73 414.329 132.572L413.394 131.92C406.17 126.876 404.401 116.93 409.445 109.705C412.173 105.797 416.335 103.486 420.725 102.986C419.683 98.6923 420.417 93.9892 423.145 90.0818C428.189 82.8571 438.135 81.0889 445.36 86.1328L446.294 86.7852C452.577 91.1715 454.733 99.265 451.872 106.052C452.3 106.296 452.722 106.562 453.135 106.85L454.068 107.502C461.293 112.546 463.062 122.491 458.018 129.716Z" fill="#83C082"/>
<rect x="901" width="300" height="300" fill="#BCE8BB"/>
<rect x="1158" y="180.672" width="16.4495" height="77.5479" fill="#93642D"/>
<rect x="1158.04" y="152" width="16.4495" height="77.5479" fill="#714D22"/>
<rect x="1137.03" y="150.337" width="59.5317" height="59.5317" rx="29.7659" fill="#83C082"/>
<rect x="1140.03" y="112.427" width="54.4795" height="54.4795" rx="27.2397" fill="#66A865"/>
<rect x="1144.03" y="83" width="46.0735" height="46.0735" rx="23.0368" fill="#83C082"/>
<path d="M1196.31 176.883C1196.46 178.068 1196.53 179.276 1196.53 180.5C1196.53 196.939 1183.2 210.266 1166.77 210.266C1150.33 210.266 1137 196.939 1137 180.5C1137 179.276 1137.08 178.068 1137.22 176.883C1139 191.616 1151.55 203.031 1166.77 203.031C1181.98 203.031 1194.53 191.616 1196.31 176.883Z" fill="#679A66"/>
<rect x="944.302" y="180.198" width="16.4495" height="77.5479" fill="#93642D"/>
<rect x="944.346" y="151.527" width="16.4495" height="77.5479" fill="#714D22"/>
<path d="M952.049 137.9L998.856 218.972H905.241L952.049 137.9Z" fill="#66A865"/>
<path d="M952.092 107.351L991.777 176.086H912.408L952.092 107.351Z" fill="#83C082"/>
<path d="M967.346 133.527H936.846L932.346 141.027H971.846L967.346 133.527Z" fill="#458244"/>
<path d="M974.117 176.027H930.04L925.846 183.027H978.346L974.117 176.027Z" fill="#458244"/>
<path d="M952.614 79.1511L984.158 133.787H921.07L952.614 79.1511Z" fill="#66A865"/>
<path d="M952.614 56L978.43 100.714H926.799L952.614 56Z" fill="#83C082"/>
<path d="M964.846 100.527H940.346L935.846 108.027H969.346L964.846 100.527Z" fill="#458244"/>
<path d="M1037.43 102.151C1050.87 102.151 1061.75 113.04 1061.75 126.473V128.21C1061.75 129.123 1061.7 130.024 1061.6 130.911C1071.73 133.853 1079.13 143.197 1079.13 154.27V156.007C1079.13 169.44 1068.24 180.329 1054.81 180.329C1047.54 180.329 1041.02 177.143 1036.56 172.092C1032.11 177.142 1025.59 180.329 1018.32 180.329C1004.89 180.329 994 169.44 994 156.007V154.27C994 142.588 1002.24 132.831 1013.22 130.486C1013.15 129.736 1013.11 128.978 1013.11 128.21V126.473C1013.11 113.04 1024 102.151 1037.43 102.151Z" fill="#66A865"/>
<path d="M1034.91 203.695C1025 195.45 1023.64 180.728 1031.89 170.812L1032.95 169.53C1033.51 168.856 1034.11 168.222 1034.72 167.628C1029.05 159.243 1029.33 147.804 1036.12 139.63L1037.19 138.347C1045.43 128.431 1060.15 127.076 1070.07 135.32C1075.43 139.779 1078.29 146.133 1078.48 152.596C1084.87 151.604 1091.64 153.253 1097 157.712C1106.92 165.957 1108.27 180.679 1100.03 190.595L1098.96 191.877C1091.79 200.5 1079.73 202.648 1070.18 197.64C1069.77 198.236 1069.33 198.819 1068.86 199.385L1067.8 200.668C1059.55 210.584 1044.83 211.939 1034.91 203.695Z" fill="#66A865"/>
<path d="M1086.56 94.0432C1100.14 94.0432 1111.15 105.054 1111.15 118.636V120.392C1111.15 121.315 1111.1 122.227 1111 123.124C1121.24 126.099 1128.72 135.546 1128.72 146.741V148.498C1128.72 162.08 1117.71 173.09 1104.13 173.09C1096.78 173.09 1090.19 169.869 1085.68 164.762C1081.17 169.868 1074.58 173.09 1067.24 173.09C1053.66 173.09 1042.64 162.08 1042.64 148.498V146.741C1042.64 134.93 1050.97 125.065 1062.07 122.693C1062 121.935 1061.97 121.168 1061.97 120.392V118.636C1061.97 105.054 1072.98 94.0432 1086.56 94.0432Z" fill="#66A865"/>
<path d="M1085.87 82.6287C1099.45 82.6287 1110.46 93.6394 1110.46 107.221V108.977C1110.46 109.901 1110.41 110.813 1110.31 111.71C1120.55 114.684 1128.03 124.131 1128.03 135.327V137.084C1128.03 150.666 1117.02 161.675 1103.44 161.676C1096.09 161.676 1089.5 158.454 1084.99 153.347C1080.49 158.454 1073.89 161.675 1066.55 161.676C1052.97 161.676 1041.96 150.666 1041.96 137.084V135.327C1041.96 123.516 1050.28 113.65 1061.39 111.278C1061.32 110.521 1061.28 109.753 1061.28 108.977V107.221C1061.28 93.6394 1072.29 82.6287 1085.87 82.6287Z" fill="#66A865"/>
<path d="M1041.61 79.3213C1052.75 79.3214 1061.79 88.3559 1061.79 99.5V100.941C1061.79 101.699 1061.74 102.446 1061.66 103.182C1070.06 105.622 1076.2 113.374 1076.2 122.561V124.002C1076.2 135.146 1067.17 144.181 1056.02 144.181C1049.99 144.181 1044.59 141.537 1040.89 137.347C1037.19 141.537 1031.78 144.181 1025.75 144.181C1014.61 144.181 1005.58 135.146 1005.58 124.002V122.561C1005.58 112.869 1012.41 104.774 1021.52 102.828C1021.46 102.207 1021.43 101.578 1021.43 100.941V99.5C1021.43 88.3558 1030.46 79.3213 1041.61 79.3213Z" fill="#66A865"/>
<path d="M1056.84 99.165C1067.58 99.1652 1076.29 107.872 1076.29 118.612V120.002C1076.29 120.732 1076.25 121.453 1076.17 122.162C1084.26 124.514 1090.18 131.985 1090.18 140.839V142.228C1090.18 152.968 1081.47 161.676 1070.73 161.676C1064.92 161.676 1059.71 159.127 1056.15 155.089C1052.58 159.127 1047.37 161.676 1041.56 161.676C1030.82 161.676 1022.11 152.968 1022.11 142.228V140.839C1022.11 131.499 1028.7 123.697 1037.48 121.821C1037.42 121.222 1037.39 120.615 1037.39 120.002V118.612C1037.39 107.872 1046.1 99.165 1056.84 99.165Z" fill="#66A865"/>
<path d="M1127.46 129.997C1128.04 132.076 1128.34 134.265 1128.34 136.526V138.282C1128.34 139.335 1128.28 140.372 1128.15 141.389C1128.72 143.475 1129.03 145.672 1129.03 147.941V149.698C1129.03 162.893 1118.64 173.659 1105.59 174.261C1106.27 180.354 1104.57 186.707 1100.34 191.794L1099.28 193.076C1092.11 201.699 1080.04 203.848 1070.49 198.84C1070.08 199.436 1069.65 200.018 1069.17 200.584L1068.11 201.867C1059.86 211.783 1045.14 213.138 1035.23 204.894C1027.65 198.592 1025.07 188.506 1027.96 179.674C1025.09 180.867 1021.94 181.529 1018.63 181.529C1005.2 181.529 994.312 170.639 994.312 157.206V155.469C994.312 150.558 995.771 145.989 998.274 142.166C1002.62 148.799 1010.11 153.182 1018.63 153.182C1022.72 153.182 1026.56 152.176 1029.94 150.399C1031.35 153.359 1033.41 156.069 1036.09 158.302C1046.01 166.546 1060.73 165.19 1068.97 155.275L1070.04 153.992C1070.51 153.426 1070.95 152.843 1071.36 152.247C1080.91 157.255 1092.97 155.108 1100.14 146.485L1100.81 145.675C1102 145.85 1103.21 145.943 1104.44 145.943C1114.98 145.942 1123.96 139.313 1127.46 129.997Z" fill="#458244"/>
<path d="M1055.9 165.999H1067.47L1076.9 256.109H1046.31L1055.9 165.999Z" fill="#93642D"/>
<path d="M1055.81 165.999H1067.55L1072.52 214.499H1050.81L1055.81 165.999Z" fill="#714D22"/>
<path fill-rule="evenodd" clip-rule="evenodd" d="M1052.64 204.397C1034.54 191.362 1032.34 171.778 1033.61 163.229L1041.79 164.44C1040.85 170.774 1042.51 186.908 1057.48 197.687L1052.64 204.397Z" fill="#714D22"/>
<path fill-rule="evenodd" clip-rule="evenodd" d="M1066.32 191.167C1084.42 178.133 1086.62 158.548 1085.35 149.999L1077.18 151.211C1078.11 157.545 1076.46 173.679 1061.49 184.457L1066.32 191.167Z" fill="#714D22"/>
<path d="M1057.3 117.999C1066.26 117.999 1073.53 125.267 1073.53 134.233V135.392C1073.53 136.001 1073.5 136.603 1073.43 137.195C1080.19 139.158 1085.13 145.394 1085.13 152.784V153.944C1085.13 162.909 1077.86 170.177 1068.89 170.177C1064.05 170.177 1059.69 168.05 1056.72 164.679C1053.75 168.049 1049.39 170.177 1044.55 170.177C1035.58 170.177 1028.31 162.909 1028.31 153.944V152.784C1028.31 144.988 1033.81 138.476 1041.14 136.91C1041.09 136.41 1041.07 135.904 1041.07 135.392V134.233C1041.07 125.267 1048.33 117.999 1057.3 117.999Z" fill="#66A865"/>
<path d="M1081.63 129.612C1087.91 129.612 1093 134.705 1093 140.988V141.8C1093 142.228 1092.98 142.65 1092.93 143.066C1097.67 144.441 1101.13 148.809 1101.13 153.989V154.801C1101.13 161.084 1096.03 166.177 1089.75 166.177C1086.35 166.177 1083.3 164.685 1081.22 162.322C1079.13 164.684 1076.09 166.177 1072.69 166.177C1066.41 166.177 1061.31 161.084 1061.31 154.801V153.989C1061.31 148.525 1065.16 143.962 1070.3 142.865C1070.27 142.515 1070.25 142.159 1070.25 141.8V140.988C1070.25 134.705 1075.34 129.612 1081.63 129.612Z" fill="#66A865"/>
<path d="M1059.02 129.716C1053.97 136.941 1044.03 138.709 1036.8 133.665L1035.87 133.013C1035.38 132.67 1034.91 132.303 1034.47 131.917C1029.09 136.258 1021.28 136.729 1015.33 132.572L1014.39 131.919C1007.17 126.875 1005.4 116.929 1010.44 109.704C1013.17 105.797 1017.34 103.486 1021.73 102.985C1020.68 98.6918 1021.42 93.9887 1024.15 90.0813C1029.19 82.8566 1039.13 81.0885 1046.36 86.1323L1047.29 86.7847C1053.58 91.1711 1055.73 99.2646 1052.87 106.052C1053.3 106.296 1053.72 106.561 1054.13 106.849L1055.07 107.501C1062.29 112.545 1064.06 122.491 1059.02 129.716Z" fill="#83C082"/>
<rect x="602" width="300" height="300" fill="#BCE8BB"/>
<rect x="859" y="180.672" width="16.4495" height="77.5479" fill="#93642D"/>
<rect x="859.044" y="152" width="16.4495" height="77.5479" fill="#714D22"/>
<rect x="838.034" y="150.337" width="59.5317" height="59.5317" rx="29.7659" fill="#83C082"/>
<rect x="841.031" y="112.427" width="54.4795" height="54.4795" rx="27.2397" fill="#66A865"/>
<rect x="845.026" y="83" width="46.0735" height="46.0735" rx="23.0368" fill="#83C082"/>
<path d="M897.312 176.883C897.456 178.068 897.531 179.276 897.531 180.5C897.531 196.939 884.205 210.266 867.766 210.266C851.327 210.266 838 196.939 838 180.5C838 179.276 838.075 178.068 838.219 176.883C840.004 191.616 852.551 203.031 867.766 203.031C882.98 203.031 895.528 191.616 897.312 176.883Z" fill="#679A66"/>
<rect x="645.302" y="180.198" width="16.4495" height="77.5479" fill="#93642D"/>
<rect x="645.346" y="151.527" width="16.4495" height="77.5479" fill="#714D22"/>
<path d="M653.049 137.9L699.856 218.972H606.241L653.049 137.9Z" fill="#66A865"/>
<path d="M653.092 107.351L692.777 176.086H613.408L653.092 107.351Z" fill="#83C082"/>
<path d="M668.346 133.527H637.846L633.346 141.027H672.846L668.346 133.527Z" fill="#458244"/>
<path d="M675.117 176.027H631.04L626.846 183.027H679.346L675.117 176.027Z" fill="#458244"/>
<path d="M653.614 79.1511L685.158 133.787H622.07L653.614 79.1511Z" fill="#66A865"/>
<path d="M653.614 56L679.43 100.714H627.799L653.614 56Z" fill="#83C082"/>
<path d="M665.846 100.527H641.346L636.846 108.027H670.346L665.846 100.527Z" fill="#458244"/>
<path d="M738.433 102.151C751.865 102.151 762.755 113.04 762.755 126.473V128.21C762.755 129.123 762.702 130.024 762.604 130.911C772.728 133.853 780.128 143.197 780.128 154.27V156.007C780.128 169.44 769.238 180.329 755.806 180.329C748.54 180.329 742.02 177.143 737.563 172.092C733.107 177.142 726.587 180.329 719.322 180.329C705.89 180.329 695 169.44 695 156.007V154.27C695 142.588 703.235 132.831 714.217 130.486C714.147 129.736 714.11 128.978 714.11 128.21V126.473C714.11 113.04 725 102.151 738.433 102.151Z" fill="#66A865"/>
<path d="M735.914 203.695C725.998 195.45 724.643 180.728 732.887 170.812L733.953 169.53C734.514 168.856 735.106 168.222 735.723 167.628C730.055 159.243 730.327 147.804 737.122 139.63L738.189 138.347C746.433 128.431 761.155 127.076 771.071 135.32C776.434 139.779 779.292 146.133 779.482 152.596C785.872 151.604 792.641 153.253 798.004 157.712C807.92 165.957 809.275 180.679 801.031 190.595L799.964 191.877C792.795 200.5 780.727 202.648 771.181 197.64C770.773 198.236 770.333 198.819 769.863 199.385L768.796 200.668C760.552 210.584 745.83 211.939 735.914 203.695Z" fill="#66A865"/>
<path d="M787.56 94.0432C801.142 94.0432 812.152 105.054 812.152 118.636V120.392C812.152 121.315 812.099 122.227 812 123.124C822.236 126.099 829.718 135.546 829.718 146.741V148.498C829.718 162.08 818.708 173.09 805.126 173.09C797.78 173.09 791.187 169.869 786.681 164.762C782.174 169.868 775.583 173.09 768.237 173.09C754.655 173.09 743.645 162.08 743.645 148.498V146.741C743.645 134.93 751.971 125.065 763.074 122.693C763.004 121.935 762.967 121.168 762.967 120.392V118.636C762.967 105.054 773.978 94.0432 787.56 94.0432Z" fill="#66A865"/>
<path d="M786.871 82.6287C800.453 82.6287 811.464 93.6394 811.464 107.221V108.977C811.464 109.901 811.411 110.813 811.312 111.71C821.548 114.684 829.029 124.131 829.029 135.327V137.084C829.029 150.666 818.019 161.675 804.438 161.676C797.091 161.676 790.498 158.454 785.992 153.347C781.486 158.454 774.894 161.675 767.549 161.676C753.967 161.676 742.956 150.666 742.956 137.084V135.327C742.956 123.516 751.283 113.65 762.386 111.278C762.315 110.521 762.278 109.753 762.278 108.977V107.221C762.278 93.6394 773.289 82.6287 786.871 82.6287Z" fill="#66A865"/>
<path d="M742.609 79.3213C753.753 79.3214 762.787 88.3559 762.787 99.5V100.941C762.787 101.699 762.743 102.446 762.662 103.182C771.061 105.622 777.201 113.374 777.201 122.561V124.002C777.201 135.146 768.166 144.181 757.022 144.181C750.995 144.181 745.586 141.537 741.888 137.347C738.191 141.537 732.782 144.181 726.754 144.181C715.61 144.181 706.576 135.146 706.576 124.002V122.561C706.576 112.869 713.408 104.774 722.518 102.828C722.46 102.207 722.43 101.578 722.43 100.941V99.5C722.43 88.3558 731.465 79.3213 742.609 79.3213Z" fill="#66A865"/>
<path d="M757.841 99.165C768.581 99.1652 777.288 107.872 777.288 118.612V120.002C777.288 120.732 777.245 121.453 777.167 122.162C785.262 124.514 791.18 131.985 791.18 140.839V142.228C791.18 152.968 782.472 161.676 771.731 161.676C765.922 161.676 760.709 159.127 757.146 155.089C753.582 159.127 748.37 161.676 742.561 161.676C731.82 161.676 723.112 152.968 723.112 142.228V140.839C723.112 131.499 729.697 123.697 738.478 121.821C738.422 121.222 738.393 120.615 738.393 120.002V118.612C738.393 107.872 747.1 99.165 757.841 99.165Z" fill="#66A865"/>
<path d="M828.465 129.997C829.036 132.076 829.342 134.265 829.342 136.526V138.282C829.342 139.335 829.275 140.372 829.147 141.389C829.722 143.475 830.03 145.672 830.03 147.941V149.698C830.03 162.893 819.637 173.659 806.591 174.261C807.274 180.354 805.572 186.707 801.343 191.794L800.276 193.076C793.107 201.699 781.039 203.848 771.493 198.84C771.085 199.436 770.645 200.018 770.175 200.584L769.108 201.867C760.864 211.783 746.142 213.138 736.226 204.894C728.647 198.592 726.069 188.506 728.957 179.674C726.086 180.867 722.938 181.529 719.635 181.529C706.202 181.529 695.312 170.639 695.312 157.206V155.469C695.312 150.558 696.771 145.989 699.274 142.166C703.618 148.799 711.114 153.182 719.635 153.182C723.716 153.182 727.562 152.176 730.939 150.399C732.348 153.359 734.405 156.069 737.092 158.302C747.008 166.546 761.73 165.19 769.974 155.275L771.041 153.992C771.512 153.426 771.951 152.843 772.359 152.247C781.905 157.255 793.973 155.108 801.142 146.485L801.814 145.675C802.997 145.85 804.207 145.943 805.438 145.943C815.977 145.942 824.965 139.313 828.465 129.997Z" fill="#458244"/>
<path d="M756.895 165.999H768.471L777.905 256.109H747.312L756.895 165.999Z" fill="#93642D"/>
<path d="M756.812 165.999H768.554L773.525 214.499H751.812L756.812 165.999Z" fill="#714D22"/>
<path fill-rule="evenodd" clip-rule="evenodd" d="M753.644 204.397C735.541 191.362 733.34 171.778 734.607 163.229L742.786 164.44C741.847 170.774 743.505 186.908 758.475 197.687L753.644 204.397Z" fill="#714D22"/>
<path fill-rule="evenodd" clip-rule="evenodd" d="M767.317 191.167C785.421 178.133 787.621 158.548 786.355 149.999L778.176 151.211C779.114 157.545 777.456 173.679 762.486 184.457L767.317 191.167Z" fill="#714D22"/>
<path d="M758.3 117.999C767.265 117.999 774.533 125.267 774.533 134.233V135.392C774.533 136.001 774.498 136.603 774.432 137.195C781.189 139.158 786.128 145.394 786.128 152.784V153.944C786.128 162.909 778.86 170.177 769.894 170.177C765.045 170.177 760.694 168.05 757.719 164.679C754.745 168.049 750.394 170.177 745.546 170.177C736.58 170.177 729.312 162.909 729.312 153.944V152.784C729.312 144.988 734.808 138.476 742.137 136.91C742.091 136.41 742.067 135.904 742.067 135.392V134.233C742.067 125.267 749.334 117.999 758.3 117.999Z" fill="#66A865"/>
<path d="M782.626 129.612C788.909 129.612 794.001 134.705 794.001 140.988V141.8C794.001 142.228 793.975 142.65 793.929 143.066C798.665 144.441 802.127 148.809 802.127 153.989V154.801C802.127 161.084 797.034 166.177 790.751 166.177C787.353 166.177 784.304 164.685 782.219 162.322C780.135 164.684 777.087 166.177 773.688 166.177C767.405 166.177 762.312 161.084 762.312 154.801V153.989C762.312 148.525 766.165 143.962 771.301 142.865C771.269 142.515 771.25 142.159 771.25 141.8V140.988C771.25 134.705 776.344 129.612 782.626 129.612Z" fill="#66A865"/>
<path d="M760.018 129.716C754.974 136.941 745.028 138.709 737.803 133.665L736.869 133.013C736.378 132.67 735.913 132.303 735.473 131.917C730.089 136.258 722.285 136.729 716.329 132.572L715.394 131.919C708.17 126.875 706.401 116.929 711.445 109.704C714.173 105.797 718.335 103.486 722.725 102.985C721.683 98.6918 722.417 93.9887 725.145 90.0813C730.189 82.8566 740.135 81.0885 747.36 86.1323L748.294 86.7847C754.577 91.1711 756.733 99.2646 753.872 106.052C754.3 106.296 754.722 106.561 755.135 106.849L756.068 107.501C763.293 112.545 765.062 122.491 760.018 129.716Z" fill="#83C082"/>
<rect x="3" width="300" height="300" fill="#BCE8BB"/>
<rect x="260" y="180.672" width="16.4495" height="77.5479" fill="#93642D"/>
<rect x="260.044" y="152" width="16.4495" height="77.5479" fill="#714D22"/>
<rect x="239.034" y="150.337" width="59.5317" height="59.5317" rx="29.7659" fill="#83C082"/>
<rect x="242.031" y="112.427" width="54.4795" height="54.4795" rx="27.2397" fill="#66A865"/>
<rect x="246.026" y="83" width="46.0735" height="46.0735" rx="23.0368" fill="#83C082"/>
<path d="M298.312 176.883C298.456 178.068 298.531 179.276 298.531 180.5C298.531 196.939 285.205 210.266 268.766 210.266C252.327 210.266 239 196.939 239 180.5C239 179.276 239.075 178.068 239.219 176.883C241.004 191.616 253.551 203.031 268.766 203.031C283.98 203.031 296.528 191.616 298.312 176.883Z" fill="#679A66"/>
<rect x="46.3025" y="180.198" width="16.4495" height="77.5479" fill="#93642D"/>
<rect x="46.3464" y="151.527" width="16.4495" height="77.5479" fill="#714D22"/>
<path d="M54.0485 137.9L100.856 218.972H7.24113L54.0485 137.9Z" fill="#66A865"/>
<path d="M54.0921 107.351L93.7766 176.086H14.4075L54.0921 107.351Z" fill="#83C082"/>
<path d="M69.3463 133.527H38.8463L34.3463 141.027H73.8463L69.3463 133.527Z" fill="#458244"/>
<path d="M76.1174 176.027H32.0397L27.8463 183.027H80.3463L76.1174 176.027Z" fill="#458244"/>
<path d="M54.6142 79.1511L86.1583 133.787H23.0701L54.6142 79.1511Z" fill="#66A865"/>
<path d="M54.6143 56L80.43 100.714H28.7986L54.6143 56Z" fill="#83C082"/>
<path d="M66.8463 100.527H42.3463L37.8463 108.027H71.3463L66.8463 100.527Z" fill="#458244"/>
<path d="M139.433 102.151C152.865 102.151 163.755 113.041 163.755 126.473V128.211C163.755 129.124 163.702 130.025 163.604 130.912C173.728 133.853 181.128 143.197 181.128 154.27V156.008C181.128 169.44 170.238 180.33 156.806 180.33C149.54 180.33 143.02 177.143 138.563 172.093C134.107 177.143 127.587 180.33 120.322 180.33C106.89 180.33 96.0001 169.44 96 156.008V154.27C96 142.589 104.235 132.832 115.217 130.486C115.147 129.737 115.11 128.978 115.11 128.211V126.473C115.11 113.041 126 102.151 139.433 102.151Z" fill="#66A865"/>
<path d="M136.914 203.695C126.998 195.451 125.643 180.729 133.887 170.813L134.953 169.53C135.514 168.856 136.106 168.223 136.723 167.628C131.055 159.243 131.326 147.804 138.122 139.63L139.189 138.347C147.433 128.431 162.155 127.076 172.071 135.321C177.434 139.78 180.292 146.133 180.482 152.597C186.872 151.604 193.64 153.254 199.004 157.713C208.92 165.957 210.275 180.679 202.03 190.595L200.964 191.878C193.795 200.501 181.727 202.649 172.181 197.641C171.772 198.237 171.333 198.819 170.862 199.386L169.796 200.668C161.552 210.584 146.83 211.939 136.914 203.695Z" fill="#66A865"/>
<path d="M188.56 94.0437C202.142 94.0437 213.152 105.054 213.152 118.636V120.392C213.152 121.316 213.099 122.228 213 123.125C223.236 126.099 230.718 135.546 230.718 146.742V148.499C230.718 162.081 219.708 173.09 206.126 173.091C198.78 173.091 192.187 169.869 187.681 164.762C183.174 169.869 176.583 173.09 169.237 173.091C155.655 173.091 144.645 162.081 144.645 148.499V146.742C144.645 134.931 152.971 125.065 164.074 122.693C164.004 121.936 163.967 121.168 163.967 120.392V118.636C163.967 105.054 174.978 94.0437 188.56 94.0437Z" fill="#66A865"/>
<path d="M187.871 82.6292C201.453 82.6292 212.464 93.6399 212.464 107.222V108.978C212.464 109.901 212.411 110.813 212.312 111.71C222.548 114.685 230.029 124.132 230.029 135.327V137.084C230.029 150.666 219.019 161.676 205.438 161.676C198.091 161.676 191.498 158.455 186.992 153.348C182.486 158.454 175.894 161.676 168.549 161.676C154.967 161.676 143.956 150.666 143.956 137.084V135.327C143.956 123.516 152.283 113.651 163.386 111.279C163.315 110.521 163.278 109.754 163.278 108.978V107.222C163.278 93.6399 174.289 82.6292 187.871 82.6292Z" fill="#66A865"/>
<path d="M143.609 79.3218C154.753 79.3219 163.787 88.3563 163.787 99.5005V100.942C163.787 101.699 163.743 102.446 163.662 103.182C172.061 105.622 178.201 113.375 178.201 122.561V124.002C178.201 135.147 169.166 144.181 158.022 144.181C151.995 144.181 146.586 141.537 142.888 137.347C139.191 141.537 133.782 144.181 127.754 144.181C116.61 144.181 107.576 135.147 107.576 124.002V122.561C107.576 112.87 114.408 104.775 123.518 102.829C123.46 102.207 123.43 101.578 123.43 100.942V99.5005C123.43 88.3562 132.465 79.3218 143.609 79.3218Z" fill="#66A865"/>
<path d="M158.841 99.1655C169.581 99.1657 178.288 107.872 178.288 118.613V120.002C178.288 120.733 178.245 121.453 178.167 122.163C186.262 124.514 192.18 131.985 192.18 140.839V142.228C192.18 152.969 183.472 161.676 172.731 161.676C166.922 161.676 161.709 159.128 158.145 155.089C154.582 159.128 149.369 161.676 143.56 161.676C132.82 161.676 124.112 152.969 124.112 142.228V140.839C124.112 131.499 130.697 123.698 139.477 121.822C139.422 121.223 139.392 120.616 139.392 120.002V118.613C139.393 107.872 148.1 99.1655 158.841 99.1655Z" fill="#66A865"/>
<path d="M229.465 129.998C230.036 132.077 230.342 134.266 230.342 136.526V138.283C230.342 139.335 230.275 140.372 230.147 141.389C230.722 143.475 231.03 145.672 231.03 147.941V149.698C231.03 162.893 220.637 173.659 207.591 174.261C208.274 180.355 206.572 186.707 202.343 191.795L201.276 193.077C194.107 201.7 182.039 203.849 172.493 198.841C172.085 199.436 171.645 200.018 171.175 200.585L170.108 201.868C161.864 211.783 147.142 213.138 137.226 204.894C129.647 198.593 127.069 188.506 129.957 179.675C127.086 180.868 123.938 181.529 120.635 181.529C107.202 181.529 96.3124 170.639 96.3123 157.207V155.469C96.3123 150.558 97.7708 145.99 100.274 142.167C104.618 148.8 112.114 153.182 120.635 153.182C124.716 153.182 128.562 152.176 131.939 150.399C133.348 153.359 135.405 156.069 138.092 158.302C148.008 166.547 162.73 165.191 170.974 155.275L172.041 153.993C172.512 153.427 172.951 152.843 173.359 152.248C182.905 157.256 194.973 155.108 202.142 146.485L202.814 145.676C203.997 145.85 205.207 145.943 206.438 145.943C216.977 145.943 225.965 139.313 229.465 129.998Z" fill="#458244"/>
<path d="M157.895 166H169.471L178.905 256.109H148.312L157.895 166Z" fill="#93642D"/>
<path d="M157.812 166H169.554L174.525 214.5H152.812L157.812 166Z" fill="#714D22"/>
<path fill-rule="evenodd" clip-rule="evenodd" d="M154.644 204.397C136.541 191.363 134.34 171.778 135.607 163.229L143.786 164.441C142.847 170.774 144.505 186.909 159.475 197.687L154.644 204.397Z" fill="#714D22"/>
<path fill-rule="evenodd" clip-rule="evenodd" d="M168.317 191.168C186.42 178.134 188.621 158.549 187.354 150L179.175 151.211C180.114 157.545 178.456 173.68 163.486 184.458L168.317 191.168Z" fill="#714D22"/>
<path d="M159.3 118C168.265 118 175.533 125.268 175.533 134.233V135.392C175.533 136.002 175.498 136.603 175.432 137.195C182.189 139.158 187.128 145.395 187.128 152.785V153.944C187.128 162.909 179.86 170.177 170.894 170.177C166.045 170.177 161.694 168.05 158.719 164.679C155.745 168.05 151.394 170.177 146.546 170.177C137.58 170.177 130.312 162.909 130.312 153.944V152.785C130.312 144.989 135.808 138.477 143.137 136.911C143.091 136.411 143.067 135.904 143.067 135.392V134.233C143.067 125.268 150.334 118 159.3 118Z" fill="#66A865"/>
<path d="M183.627 129.612C189.909 129.612 195.002 134.705 195.002 140.988V141.801C195.002 142.228 194.975 142.651 194.929 143.066C199.665 144.442 203.128 148.81 203.128 153.989V154.802C203.128 161.084 198.034 166.177 191.752 166.177C188.353 166.177 185.304 164.685 183.219 162.322C181.135 164.685 178.087 166.177 174.688 166.177C168.405 166.177 163.312 161.084 163.312 154.802V153.989C163.312 148.525 167.165 143.963 172.301 142.866C172.269 142.515 172.251 142.16 172.251 141.801V140.988C172.251 134.705 177.344 129.612 183.627 129.612Z" fill="#66A865"/>
<path d="M161.018 129.716C155.974 136.941 146.028 138.71 138.803 133.666L137.869 133.014C137.378 132.671 136.913 132.303 136.473 131.917C131.089 136.259 123.285 136.73 117.329 132.572L116.394 131.92C109.17 126.876 107.401 116.93 112.445 109.705C115.173 105.797 119.335 103.486 123.725 102.986C122.683 98.6923 123.417 93.9892 126.145 90.0818C131.189 82.8571 141.135 81.0889 148.36 86.1328L149.294 86.7852C155.577 91.1715 157.733 99.265 154.872 106.052C155.3 106.296 155.722 106.562 156.135 106.85L157.068 107.502C164.293 112.546 166.062 122.491 161.018 129.716Z" fill="#83C082"/>
</svg>
