<svg width="303" height="300" viewBox="0 0 303 300" fill="none" xmlns="http://www.w3.org/2000/svg">
<rect x="3" width="300" height="300" fill="#BCE8BB"/>
<rect x="260" y="180.672" width="16.4495" height="77.5479" fill="#93642D"/>
<rect x="260.044" y="152" width="16.4495" height="77.5479" fill="#714D22"/>
<rect x="239.034" y="150.337" width="59.5317" height="59.5317" rx="29.7659" fill="#83C082"/>
<rect x="242.031" y="112.427" width="54.4795" height="54.4795" rx="27.2397" fill="#66A865"/>
<rect x="246.026" y="83" width="46.0735" height="46.0735" rx="23.0368" fill="#83C082"/>
<path d="M298.312 176.883C298.456 178.069 298.531 179.276 298.531 180.5C298.531 196.939 285.205 210.266 268.766 210.266C252.327 210.266 239 196.939 239 180.5C239 179.276 239.075 178.069 239.219 176.883C241.004 191.616 253.551 203.031 268.766 203.031C283.98 203.031 296.528 191.616 298.312 176.883Z" fill="#679A66"/>
<rect x="46.3024" y="180.198" width="16.4495" height="77.5479" fill="#93642D"/>
<rect x="46.3463" y="151.527" width="16.4495" height="77.5479" fill="#714D22"/>
<path d="M54.0485 137.9L100.856 218.972H7.24113L54.0485 137.9Z" fill="#66A865"/>
<path d="M54.0921 107.35L93.7766 176.086H14.4075L54.0921 107.35Z" fill="#83C082"/>
<path d="M69.3463 133.527H38.8463L34.3463 141.027H73.8463L69.3463 133.527Z" fill="#458244"/>
<path d="M76.1174 176.027H32.0397L27.8463 183.027H80.3463L76.1174 176.027Z" fill="#458244"/>
<path d="M54.6143 79.1512L86.1584 133.787H23.0701L54.6143 79.1512Z" fill="#66A865"/>
<path d="M54.6143 56L80.4299 100.714H28.7986L54.6143 56Z" fill="#83C082"/>
<path d="M66.8463 100.527H42.3463L37.8463 108.027H71.3463L66.8463 100.527Z" fill="#458244"/>
<path d="M139.433 102.151C152.865 102.151 163.755 113.041 163.755 126.473V128.211C163.755 129.124 163.702 130.025 163.604 130.912C173.728 133.853 181.128 143.197 181.128 154.27V156.008C181.128 169.44 170.238 180.33 156.806 180.33C149.54 180.33 143.02 177.143 138.563 172.093C134.107 177.143 127.587 180.33 120.322 180.33C106.89 180.33 96.0001 169.44 96 156.008V154.27C96 142.589 104.235 132.832 115.217 130.486C115.147 129.737 115.11 128.978 115.11 128.211V126.473C115.11 113.041 126 102.151 139.433 102.151Z" fill="#66A865"/>
<path d="M136.914 203.695C126.998 195.451 125.643 180.729 133.887 170.813L134.953 169.53C135.514 168.856 136.106 168.223 136.723 167.628C131.055 159.243 131.326 147.804 138.122 139.63L139.189 138.348C147.433 128.432 162.155 127.077 172.071 135.321C177.434 139.78 180.292 146.134 180.482 152.597C186.872 151.604 193.64 153.254 199.004 157.713C208.92 165.957 210.275 180.679 202.03 190.595L200.964 191.878C193.795 200.501 181.727 202.649 172.181 197.641C171.772 198.237 171.333 198.819 170.862 199.386L169.796 200.668C161.552 210.584 146.83 211.939 136.914 203.695Z" fill="#66A865"/>
<path d="M188.56 94.0438C202.142 94.0438 213.152 105.055 213.152 118.637V120.392C213.152 121.316 213.099 122.228 213 123.125C223.236 126.099 230.718 135.546 230.718 146.742V148.499C230.718 162.081 219.708 173.09 206.126 173.091C198.78 173.091 192.187 169.869 187.681 164.763C183.174 169.869 176.583 173.091 169.237 173.091C155.655 173.091 144.645 162.081 144.644 148.499V146.742C144.644 134.931 152.971 125.065 164.074 122.693C164.004 121.936 163.967 121.168 163.967 120.392V118.637C163.967 105.055 174.977 94.0438 188.56 94.0438Z" fill="#66A865"/>
<path d="M187.871 82.629C201.453 82.629 212.464 93.6398 212.464 107.222V108.978C212.464 109.901 212.411 110.813 212.312 111.71C222.548 114.685 230.029 124.131 230.029 135.327V137.084C230.029 150.666 219.019 161.676 205.438 161.676C198.092 161.676 191.499 158.454 186.992 153.348C182.486 158.454 175.894 161.676 168.549 161.676C154.967 161.676 143.956 150.666 143.956 137.084V135.327C143.956 123.516 152.283 113.651 163.386 111.278C163.316 110.521 163.278 109.753 163.278 108.978V107.222C163.278 93.6398 174.289 82.629 187.871 82.629Z" fill="#66A865"/>
<path d="M143.609 79.3218C154.753 79.3219 163.787 88.3563 163.787 99.5005V100.942C163.787 101.699 163.743 102.446 163.662 103.182C172.061 105.622 178.201 113.374 178.201 122.561V124.002C178.201 135.147 169.166 144.181 158.022 144.181C151.995 144.181 146.586 141.537 142.888 137.347C139.191 141.537 133.782 144.181 127.754 144.181C116.61 144.181 107.576 135.147 107.576 124.002V122.561C107.576 112.87 114.408 104.775 123.518 102.829C123.46 102.207 123.43 101.578 123.43 100.942V99.5005C123.43 88.3562 132.465 79.3218 143.609 79.3218Z" fill="#66A865"/>
<path d="M158.841 99.1656C169.581 99.1658 178.288 107.873 178.288 118.613V120.003C178.288 120.733 178.245 121.453 178.167 122.163C186.262 124.515 192.18 131.985 192.18 140.839V142.228C192.18 152.969 183.472 161.676 172.731 161.676C166.922 161.676 161.709 159.128 158.145 155.089C154.582 159.128 149.369 161.676 143.56 161.676C132.82 161.676 124.112 152.969 124.112 142.228V140.839C124.112 131.499 130.697 123.698 139.477 121.822C139.422 121.223 139.392 120.616 139.392 120.003V118.613C139.393 107.872 148.1 99.1656 158.841 99.1656Z" fill="#66A865"/>
<path d="M229.465 129.998C230.036 132.077 230.341 134.266 230.341 136.526V138.283C230.341 139.335 230.275 140.372 230.147 141.389C230.722 143.475 231.03 145.672 231.03 147.941V149.698C231.03 162.893 220.637 173.659 207.591 174.261C208.274 180.355 206.572 186.707 202.342 191.795L201.276 193.077C194.107 201.7 182.039 203.849 172.493 198.841C172.084 199.436 171.645 200.018 171.174 200.585L170.108 201.868C161.864 211.783 147.142 213.138 137.226 204.894C129.647 198.593 127.069 188.506 129.957 179.675C127.086 180.868 123.938 181.529 120.634 181.529C107.202 181.529 96.3123 170.639 96.3122 157.207V155.469C96.3122 150.558 97.7708 145.99 100.274 142.167C104.618 148.8 112.114 153.182 120.634 153.182C124.716 153.182 128.562 152.176 131.939 150.399C133.348 153.359 135.405 156.069 138.091 158.303C148.008 166.547 162.73 165.191 170.974 155.275L172.041 153.993C172.512 153.427 172.951 152.843 173.359 152.248C182.905 157.256 194.973 155.108 202.142 146.485L202.814 145.676C203.997 145.85 205.207 145.943 206.438 145.943C216.977 145.943 225.965 139.313 229.465 129.998Z" fill="#458244"/>
<path d="M157.895 166H169.471L178.905 256.11H148.312L157.895 166Z" fill="#93642D"/>
<path d="M157.812 166H169.553L174.525 214.5H152.812L157.812 166Z" fill="#714D22"/>
<path fill-rule="evenodd" clip-rule="evenodd" d="M154.644 204.397C136.541 191.363 134.34 171.778 135.607 163.229L143.786 164.441C142.847 170.775 144.505 186.909 159.475 197.687L154.644 204.397Z" fill="#714D22"/>
<path fill-rule="evenodd" clip-rule="evenodd" d="M168.317 191.168C186.42 178.134 188.621 158.549 187.354 150L179.175 151.211C180.114 157.545 178.456 173.68 163.486 184.458L168.317 191.168Z" fill="#714D22"/>
<path d="M159.299 118C168.265 118 175.533 125.268 175.533 134.233V135.392C175.533 136.002 175.498 136.603 175.432 137.195C182.189 139.158 187.128 145.395 187.128 152.785V153.944C187.128 162.909 179.859 170.178 170.894 170.178C166.045 170.177 161.694 168.05 158.719 164.679C155.745 168.05 151.394 170.177 146.546 170.178C137.58 170.178 130.312 162.909 130.312 153.944V152.785C130.312 144.989 135.808 138.477 143.137 136.911C143.091 136.411 143.067 135.904 143.067 135.392V134.233C143.067 125.268 150.334 118 159.299 118Z" fill="#66A865"/>
<path d="M183.627 129.612C189.909 129.612 195.002 134.705 195.002 140.988V141.8C195.002 142.228 194.975 142.65 194.929 143.066C199.665 144.441 203.128 148.809 203.128 153.989V154.801C203.128 161.084 198.034 166.177 191.752 166.177C188.353 166.177 185.304 164.685 183.219 162.322C181.135 164.685 178.087 166.177 174.688 166.177C168.405 166.177 163.312 161.084 163.312 154.801V153.989C163.312 148.525 167.165 143.963 172.301 142.866C172.269 142.515 172.251 142.16 172.251 141.8V140.988C172.251 134.705 177.344 129.612 183.627 129.612Z" fill="#66A865"/>
<path d="M161.018 129.716C155.974 136.941 146.028 138.709 138.803 133.665L137.869 133.014C137.378 132.671 136.913 132.303 136.473 131.917C131.089 136.258 123.285 136.73 117.329 132.572L116.394 131.92C109.17 126.876 107.401 116.93 112.445 109.705C115.173 105.797 119.335 103.486 123.725 102.986C122.683 98.6922 123.417 93.9891 126.145 90.0817C131.189 82.857 141.135 81.0889 148.36 86.1327L149.294 86.7851C155.577 91.1715 157.733 99.265 154.872 106.052C155.3 106.296 155.722 106.562 156.135 106.85L157.068 107.501C164.293 112.545 166.062 122.491 161.018 129.716Z" fill="#83C082"/>
</svg>
