<svg width="300" height="300" viewBox="0 0 300 300" fill="none" xmlns="http://www.w3.org/2000/svg">
<rect width="300" height="300" fill="#357960"/>
<rect x="260.985" y="173.672" width="16.6411" height="77.5479" fill="#93642D"/>
<rect x="261.029" y="145" width="16.6411" height="77.5479" fill="#714D22"/>
<rect x="239.775" y="143.337" width="60.2251" height="59.5317" rx="29.7659" fill="#83C082"/>
<rect x="242.807" y="105.427" width="55.114" height="54.4795" rx="27.2397" fill="#66A865"/>
<rect x="246.849" y="76" width="46.6102" height="46.0735" rx="23.0368" fill="#83C082"/>
<path d="M299.746 169.883C299.89 171.069 299.966 172.276 299.966 173.5C299.966 189.939 286.638 203.266 270.199 203.266H269.506C253.067 203.266 239.74 189.939 239.74 173.5C239.74 172.276 239.815 171.069 239.959 169.883C241.744 184.616 254.291 196.031 269.506 196.031H270.199C285.414 196.031 297.961 184.616 299.746 169.883Z" fill="#679A66"/>
<rect x="46.8418" y="173.198" width="16.6411" height="77.5479" fill="#93642D"/>
<rect x="46.8862" y="144.527" width="16.6411" height="77.5479" fill="#714D22"/>
<path d="M54.678 130.9L102.031 211.972H7.32547L54.678 130.9Z" fill="#66A865"/>
<path d="M54.7222 100.35L94.869 169.086H14.5755L54.7222 100.35Z" fill="#83C082"/>
<path d="M70.1542 126.527H39.299L34.7466 134.027H74.7067L70.1542 126.527Z" fill="#458244"/>
<path d="M77.0042 169.027H32.4131L28.1709 176.027H81.2824L77.0042 169.027Z" fill="#458244"/>
<path d="M55.2501 72.1512L87.1616 126.787H23.3386L55.2501 72.1512Z" fill="#66A865"/>
<path d="M55.2503 49L81.3667 93.7141H29.134L55.2503 49Z" fill="#83C082"/>
<path d="M67.6249 93.5269H42.8395L38.2871 101.027H72.1773L67.6249 93.5269Z" fill="#458244"/>
<path d="M139.013 95.1512C152.602 95.1513 163.619 106.168 163.619 119.757V120.928C163.619 121.939 163.557 122.936 163.438 123.915C173.694 126.882 181.194 136.341 181.194 147.554V148.724C181.194 162.314 170.178 173.33 156.588 173.33C149.239 173.33 142.643 170.106 138.134 164.997C133.626 170.106 127.03 173.33 119.68 173.33C106.091 173.33 95.0748 162.314 95.0747 148.724V147.554C95.0747 135.727 103.418 125.851 114.54 123.487C114.453 122.646 114.408 121.792 114.408 120.928V119.757C114.408 106.167 125.424 95.1512 139.013 95.1512Z" fill="#66A865"/>
<path d="M136.465 196.695C126.434 188.451 125.077 173.712 133.435 163.775L134.45 162.568C135.028 161.881 135.638 161.236 136.275 160.631C130.542 152.241 130.83 140.785 137.72 132.592L138.735 131.386C147.093 121.449 162.001 120.076 172.033 128.32C177.459 132.78 180.345 139.139 180.53 145.611C187.001 144.61 193.853 146.253 199.279 150.712C209.31 158.957 210.666 173.696 202.308 183.633L201.294 184.84C194.024 193.482 181.801 195.645 172.139 190.638C171.718 191.248 171.265 191.844 170.778 192.424L169.763 193.631C161.405 203.568 146.496 204.939 136.465 196.695Z" fill="#66A865"/>
<path d="M188.712 87.0438C202.453 87.0439 213.591 98.1825 213.591 111.923V113.106C213.591 114.129 213.528 115.137 213.408 116.127C223.778 119.126 231.362 128.691 231.362 140.028V141.212C231.362 154.952 220.223 166.091 206.483 166.091C199.052 166.091 192.382 162.832 187.824 157.666C183.265 162.832 176.596 166.091 169.165 166.091C155.424 166.091 144.286 154.952 144.286 141.212V140.028C144.286 128.071 152.722 118.086 163.966 115.695C163.878 114.844 163.833 113.98 163.833 113.106V111.923C163.833 98.1824 174.972 87.0438 188.712 87.0438Z" fill="#66A865"/>
<path d="M188.016 75.629C201.756 75.6293 212.895 86.7679 212.895 100.508V101.692C212.895 102.714 212.831 103.722 212.711 104.712C223.082 107.711 230.665 117.276 230.666 128.613V129.797C230.666 143.537 219.527 154.676 205.787 154.676C198.355 154.676 191.686 151.417 187.127 146.251C182.569 151.417 175.9 154.676 168.468 154.676C154.728 154.676 143.589 143.537 143.589 129.797V128.613C143.589 116.656 152.025 106.671 163.27 104.28C163.182 103.429 163.137 102.566 163.137 101.692V100.508C163.137 86.7677 174.276 75.629 188.016 75.629Z" fill="#66A865"/>
<path d="M143.237 72.3218C154.511 72.3218 163.651 81.461 163.651 92.7349V93.7065C163.651 94.5452 163.599 95.3719 163.501 96.1841C172.01 98.6451 178.232 106.494 178.232 115.796V116.767C178.232 128.041 169.092 137.181 157.818 137.181C151.721 137.181 146.248 134.506 142.508 130.267C138.767 134.506 133.296 137.181 127.198 137.181C115.924 137.181 106.785 128.041 106.785 116.767V115.796C106.785 105.985 113.707 97.7908 122.934 95.8296C122.861 95.1317 122.824 94.4235 122.824 93.7065V92.7349C122.824 81.4611 131.964 72.322 143.237 72.3218Z" fill="#66A865"/>
<path d="M158.647 92.1656C169.513 92.1657 178.321 100.974 178.321 111.839V112.776C178.321 113.585 178.27 114.382 178.176 115.165C186.377 117.536 192.375 125.1 192.375 134.066V135.002C192.375 145.867 183.566 154.676 172.7 154.676C166.823 154.676 161.549 152.099 157.944 148.013C154.339 152.098 149.065 154.676 143.188 154.676C132.323 154.676 123.514 145.867 123.514 135.002V134.066C123.514 124.61 130.186 116.713 139.078 114.823C139.008 114.15 138.972 113.467 138.972 112.776V111.839C138.973 100.974 147.782 92.1656 158.647 92.1656Z" fill="#66A865"/>
<path d="M230.03 122.981C230.649 125.152 230.981 127.443 230.981 129.812V130.996C230.981 132.167 230.897 133.318 230.741 134.446C231.35 136.602 231.677 138.877 231.677 141.227V142.411C231.677 155.763 221.158 166.656 207.955 167.26C208.644 173.364 206.914 179.731 202.624 184.832L201.609 186.038C194.34 194.68 182.117 196.844 172.456 191.838C172.034 192.447 171.581 193.044 171.094 193.623L170.079 194.829C161.721 204.766 146.813 206.138 136.781 197.894C129.112 191.591 126.512 181.491 129.449 172.643C126.538 173.856 123.346 174.529 119.996 174.529C106.407 174.529 95.3907 163.513 95.3904 149.924V148.753C95.3904 143.729 96.8977 139.059 99.4822 135.166C103.889 141.805 111.431 146.182 119.996 146.182C124.122 146.182 128.01 145.165 131.425 143.37C132.849 146.342 134.932 149.063 137.657 151.302C147.689 159.547 162.597 158.174 170.955 148.237L171.969 147.03C172.457 146.451 172.91 145.854 173.332 145.245C182.993 150.252 195.216 148.089 202.485 139.446L203.135 138.672C204.331 138.848 205.554 138.943 206.799 138.943C217.396 138.943 226.445 132.316 230.03 122.981Z" fill="#458244"/>
<path d="M157.691 159H169.401L178.945 249.109H147.996L157.691 159Z" fill="#93642D"/>
<path d="M157.607 159H169.485L174.514 207.5H152.549L157.607 159Z" fill="#714D22"/>
<path fill-rule="evenodd" clip-rule="evenodd" d="M154.402 197.397C136.087 184.363 133.861 164.778 135.143 156.229L143.417 157.441C142.468 163.774 144.145 179.909 159.289 190.687L154.402 197.397Z" fill="#714D22"/>
<path fill-rule="evenodd" clip-rule="evenodd" d="M168.234 184.168C186.548 171.134 188.775 151.549 187.493 143L179.219 144.211C180.168 150.545 178.491 166.68 163.347 177.458L168.234 184.168Z" fill="#714D22"/>
<path d="M159.112 111C168.181 111 175.533 118.352 175.533 127.422V128.203C175.533 128.878 175.491 129.543 175.412 130.196C182.258 132.176 187.264 138.49 187.264 145.973V146.755C187.264 155.824 179.911 163.177 170.842 163.177C165.936 163.177 161.534 161.025 158.525 157.615C155.516 161.025 151.114 163.177 146.208 163.177C137.139 163.177 129.786 155.824 129.786 146.755V145.973C129.787 138.081 135.355 131.489 142.778 129.911C142.72 129.35 142.69 128.78 142.69 128.203V127.422C142.69 118.352 150.042 111 159.112 111Z" fill="#66A865"/>
<path d="M183.721 122.612C190.077 122.612 195.229 127.765 195.229 134.121V134.668C195.229 135.141 195.197 135.608 195.141 136.067C199.94 137.454 203.45 141.877 203.45 147.122V147.669C203.45 154.025 198.297 159.177 191.941 159.177C188.503 159.177 185.419 157.667 183.31 155.276C181.202 157.667 178.118 159.177 174.679 159.177C168.324 159.177 163.171 154.025 163.171 147.669V147.122C163.171 141.591 167.073 136.972 172.274 135.866C172.233 135.472 172.213 135.072 172.213 134.668V134.121C172.213 127.765 177.366 122.612 183.721 122.612Z" fill="#66A865"/>
<path d="M160.85 122.716C155.747 129.941 145.709 131.726 138.429 126.702L137.379 125.977C136.9 125.647 136.446 125.294 136.015 124.923C130.575 129.265 122.704 129.749 116.704 125.609L115.654 124.884C108.374 119.86 106.609 109.929 111.711 102.704C114.471 98.7967 118.675 96.4822 123.106 95.9741C122.061 91.6881 122.81 86.9892 125.57 83.0815C130.673 75.8566 140.712 74.0727 147.992 79.0966L149.042 79.8215C155.371 84.1893 157.531 92.2649 154.635 99.0476C155.049 99.2826 155.458 99.5374 155.857 99.8131L156.908 100.538C164.188 105.562 165.953 115.491 160.85 122.716Z" fill="#83C082"/>
</svg>
