<svg width="450" height="300" viewBox="0 0 450 300" fill="none" xmlns="http://www.w3.org/2000/svg">
<g clip-path="url(#clip0_5_6162)">
<rect width="450" height="300" fill="white"/>
<rect x="-3" width="300" height="300" fill="#BCE8BB"/>
<rect x="260" y="180.672" width="16.4495" height="77.5479" fill="#93642D"/>
<rect x="260.044" y="152" width="16.4495" height="77.5479" fill="#714D22"/>
<rect x="239.034" y="150.337" width="59.5317" height="59.5317" rx="29.7659" fill="#83C082"/>
<rect x="242.031" y="112.427" width="54.4795" height="54.4795" rx="27.2397" fill="#66A865"/>
<rect x="246.026" y="83" width="46.0735" height="46.0735" rx="23.0368" fill="#83C082"/>
<path d="M298.312 176.883C298.456 178.069 298.531 179.276 298.531 180.5C298.531 196.939 285.205 210.266 268.766 210.266C252.327 210.266 239 196.939 239 180.5C239 179.276 239.075 178.069 239.219 176.883C241.004 191.616 253.551 203.031 268.766 203.031C283.98 203.031 296.528 191.616 298.312 176.883Z" fill="#679A66"/>
<rect x="46.3025" y="180.198" width="16.4495" height="77.5479" fill="#93642D"/>
<rect x="46.3464" y="151.527" width="16.4495" height="77.5479" fill="#714D22"/>
<path d="M54.0485 137.9L100.856 218.972H7.24113L54.0485 137.9Z" fill="#66A865"/>
<path d="M54.0921 107.35L93.7766 176.086H14.4075L54.0921 107.35Z" fill="#83C082"/>
<path d="M69.3464 133.527H38.8464L34.3464 141.027H73.8464L69.3464 133.527Z" fill="#458244"/>
<path d="M76.1175 176.027H32.0398L27.8464 183.027H80.3464L76.1175 176.027Z" fill="#458244"/>
<path d="M54.6142 79.1512L86.1583 133.787H23.0701L54.6142 79.1512Z" fill="#66A865"/>
<path d="M54.6143 56L80.43 100.714H28.7986L54.6143 56Z" fill="#83C082"/>
<path d="M66.8464 100.527H42.3464L37.8464 108.027H71.3464L66.8464 100.527Z" fill="#458244"/>
<path d="M139.433 102.151C152.865 102.151 163.755 113.041 163.755 126.474V128.211C163.755 129.124 163.702 130.025 163.604 130.912C173.728 133.853 181.128 143.197 181.128 154.27V156.008C181.128 169.44 170.238 180.33 156.806 180.33C149.54 180.33 143.02 177.143 138.563 172.093C134.107 177.143 127.587 180.33 120.322 180.33C106.89 180.33 96.0001 169.44 96 156.008V154.27C96 142.589 104.235 132.832 115.217 130.486C115.147 129.737 115.11 128.978 115.11 128.211V126.474C115.11 113.041 126 102.151 139.433 102.151Z" fill="#66A865"/>
<path d="M136.914 203.695C126.998 195.451 125.643 180.729 133.887 170.813L134.953 169.53C135.514 168.856 136.106 168.223 136.723 167.628C131.055 159.243 131.327 147.804 138.122 139.63L139.189 138.348C147.433 128.432 162.155 127.077 172.071 135.321C177.434 139.78 180.292 146.134 180.482 152.597C186.872 151.604 193.641 153.254 199.004 157.713C208.92 165.957 210.275 180.679 202.031 190.595L200.964 191.878C193.795 200.501 181.727 202.649 172.181 197.641C171.773 198.237 171.333 198.819 170.863 199.386L169.796 200.668C161.552 210.584 146.83 211.94 136.914 203.695Z" fill="#66A865"/>
<path d="M188.56 94.0438C202.142 94.0438 213.152 105.055 213.152 118.637V120.392C213.152 121.316 213.099 122.228 213 123.125C223.236 126.099 230.718 135.546 230.718 146.742V148.499C230.718 162.081 219.708 173.091 206.126 173.091C198.78 173.091 192.187 169.869 187.681 164.763C183.174 169.869 176.583 173.091 169.237 173.091C155.655 173.091 144.645 162.081 144.645 148.499V146.742C144.645 134.931 152.971 125.065 164.074 122.693C164.004 121.936 163.967 121.168 163.967 120.392V118.637C163.967 105.055 174.978 94.0438 188.56 94.0438Z" fill="#66A865"/>
<path d="M187.871 82.629C201.453 82.629 212.464 93.6398 212.464 107.222V108.978C212.464 109.901 212.411 110.813 212.312 111.71C222.548 114.684 230.029 124.131 230.029 135.327V137.084C230.029 150.666 219.019 161.676 205.438 161.676C198.091 161.676 191.498 158.454 186.992 153.348C182.486 158.454 175.894 161.676 168.549 161.676C154.967 161.676 143.956 150.666 143.956 137.084V135.327C143.956 123.516 152.283 113.651 163.386 111.278C163.315 110.521 163.278 109.753 163.278 108.978V107.222C163.278 93.6398 174.289 82.629 187.871 82.629Z" fill="#66A865"/>
<path d="M143.609 79.3218C154.753 79.3219 163.787 88.3563 163.787 99.5005V100.942C163.787 101.699 163.743 102.446 163.662 103.182C172.061 105.622 178.201 113.375 178.201 122.561V124.002C178.201 135.147 169.166 144.181 158.022 144.181C151.995 144.181 146.586 141.537 142.888 137.347C139.191 141.537 133.782 144.181 127.754 144.181C116.61 144.181 107.576 135.147 107.576 124.002V122.561C107.576 112.87 114.408 104.775 123.518 102.829C123.46 102.207 123.43 101.578 123.43 100.942V99.5005C123.43 88.3563 132.465 79.3218 143.609 79.3218Z" fill="#66A865"/>
<path d="M158.841 99.1656C169.581 99.1658 178.288 107.873 178.288 118.613V120.003C178.288 120.733 178.245 121.453 178.167 122.163C186.262 124.515 192.18 131.985 192.18 140.839V142.228C192.18 152.969 183.472 161.676 172.731 161.676C166.922 161.676 161.709 159.128 158.146 155.089C154.582 159.128 149.37 161.676 143.561 161.676C132.82 161.676 124.112 152.969 124.112 142.228V140.839C124.112 131.499 130.697 123.698 139.478 121.822C139.422 121.223 139.393 120.616 139.393 120.003V118.613C139.393 107.872 148.1 99.1656 158.841 99.1656Z" fill="#66A865"/>
<path d="M229.465 129.998C230.036 132.077 230.342 134.266 230.342 136.526V138.283C230.342 139.335 230.275 140.372 230.147 141.389C230.722 143.475 231.03 145.672 231.03 147.941V149.698C231.03 162.893 220.637 173.659 207.591 174.261C208.274 180.355 206.572 186.707 202.343 191.795L201.276 193.077C194.107 201.7 182.039 203.849 172.493 198.841C172.085 199.436 171.645 200.018 171.175 200.585L170.108 201.868C161.864 211.783 147.142 213.138 137.226 204.894C129.647 198.593 127.069 188.506 129.957 179.675C127.086 180.868 123.938 181.529 120.635 181.529C107.202 181.529 96.3124 170.639 96.3123 157.207V155.469C96.3123 150.558 97.7708 145.99 100.274 142.167C104.618 148.8 112.114 153.182 120.635 153.182C124.716 153.182 128.562 152.176 131.939 150.399C133.348 153.359 135.405 156.069 138.092 158.302C148.008 166.547 162.73 165.191 170.974 155.275L172.041 153.993C172.512 153.427 172.951 152.843 173.359 152.248C182.905 157.256 194.973 155.108 202.142 146.485L202.814 145.676C203.997 145.85 205.207 145.943 206.438 145.943C216.977 145.943 225.965 139.313 229.465 129.998Z" fill="#458244"/>
<path d="M157.895 166H169.471L178.905 256.109H148.312L157.895 166Z" fill="#93642D"/>
<path d="M157.812 166H169.554L174.525 214.5H152.812L157.812 166Z" fill="#714D22"/>
<path fill-rule="evenodd" clip-rule="evenodd" d="M154.644 204.397C136.541 191.363 134.34 171.778 135.607 163.229L143.786 164.441C142.847 170.774 144.505 186.909 159.475 197.687L154.644 204.397Z" fill="#714D22"/>
<path fill-rule="evenodd" clip-rule="evenodd" d="M168.317 191.168C186.421 178.134 188.621 158.549 187.355 150L179.176 151.211C180.114 157.545 178.456 173.68 163.486 184.458L168.317 191.168Z" fill="#714D22"/>
<path d="M159.3 118C168.265 118 175.533 125.268 175.533 134.233V135.392C175.533 136.002 175.498 136.603 175.432 137.195C182.189 139.158 187.128 145.395 187.128 152.785V153.944C187.128 162.909 179.86 170.177 170.894 170.177C166.045 170.177 161.694 168.05 158.719 164.679C155.745 168.05 151.394 170.177 146.546 170.177C137.58 170.177 130.312 162.909 130.312 153.944V152.785C130.312 144.989 135.808 138.477 143.137 136.911C143.091 136.411 143.067 135.904 143.067 135.392V134.233C143.067 125.268 150.334 118 159.3 118Z" fill="#66A865"/>
<path d="M183.626 129.612C189.909 129.612 195.001 134.705 195.001 140.988V141.801C195.001 142.228 194.975 142.651 194.929 143.066C199.665 144.442 203.127 148.81 203.127 153.989V154.802C203.127 161.084 198.034 166.177 191.751 166.177C188.353 166.177 185.304 164.685 183.219 162.322C181.135 164.685 178.087 166.177 174.688 166.177C168.405 166.177 163.312 161.084 163.312 154.802V153.989C163.312 148.525 167.165 143.963 172.301 142.866C172.269 142.515 172.25 142.16 172.25 141.801V140.988C172.25 134.705 177.344 129.612 183.626 129.612Z" fill="#66A865"/>
<path d="M161.018 129.716C155.974 136.941 146.028 138.709 138.803 133.665L137.869 133.014C137.378 132.671 136.913 132.303 136.473 131.917C131.089 136.258 123.285 136.73 117.329 132.572L116.394 131.92C109.17 126.876 107.401 116.93 112.445 109.705C115.173 105.797 119.335 103.486 123.725 102.986C122.683 98.6922 123.417 93.9891 126.145 90.0817C131.189 82.857 141.135 81.0888 148.36 86.1327L149.294 86.785C155.577 91.1714 157.733 99.2649 154.872 106.052C155.3 106.296 155.722 106.562 156.135 106.85L157.068 107.501C164.293 112.545 166.062 122.491 161.018 129.716Z" fill="#83C082"/>
<rect x="296" width="156" height="300" fill="#BCE8BB"/>
<rect x="353.302" y="180.198" width="16.4495" height="77.5479" fill="#93642D"/>
<rect x="353.346" y="151.527" width="16.4495" height="77.5479" fill="#714D22"/>
<path d="M361.049 137.9L407.856 218.972H314.241L361.049 137.9Z" fill="#66A865"/>
<path d="M361.092 107.35L400.777 176.086H321.408L361.092 107.35Z" fill="#83C082"/>
<path d="M376.346 133.527H345.846L341.346 141.027H380.846L376.346 133.527Z" fill="#458244"/>
<path d="M383.117 176.027H339.04L334.846 183.027H387.346L383.117 176.027Z" fill="#458244"/>
<path d="M361.614 79.1512L393.158 133.787H330.07L361.614 79.1512Z" fill="#66A865"/>
<path d="M361.614 56L387.43 100.714H335.799L361.614 56Z" fill="#83C082"/>
<path d="M373.846 100.527H349.346L344.846 108.027H378.346L373.846 100.527Z" fill="#458244"/>
<path d="M446.433 102.151C459.865 102.151 470.755 113.041 470.755 126.474V128.211C470.755 129.124 470.702 130.025 470.604 130.912C480.728 133.853 488.128 143.197 488.128 154.27V156.008C488.128 169.44 477.238 180.33 463.806 180.33C456.54 180.33 450.02 177.143 445.563 172.093C441.107 177.143 434.587 180.33 427.322 180.33C413.89 180.33 403 169.44 403 156.008V154.27C403 142.589 411.235 132.832 422.217 130.486C422.147 129.737 422.11 128.978 422.11 128.211V126.474C422.11 113.041 433 102.151 446.433 102.151Z" fill="#66A865"/>
<path d="M443.914 203.695C433.998 195.451 432.643 180.729 440.887 170.813L441.953 169.53C442.514 168.856 443.106 168.223 443.723 167.628C438.055 159.243 438.327 147.804 445.122 139.63L446.189 138.348C454.433 128.432 469.155 127.077 479.071 135.321C484.434 139.78 487.292 146.134 487.482 152.597C493.872 151.604 500.641 153.254 506.004 157.713C515.92 165.957 517.275 180.679 509.031 190.595L507.964 191.878C500.795 200.501 488.727 202.649 479.181 197.641C478.773 198.237 478.333 198.819 477.863 199.386L476.796 200.668C468.552 210.584 453.83 211.94 443.914 203.695Z" fill="#66A865"/>
<path d="M450.609 79.3218C461.753 79.3219 470.787 88.3563 470.787 99.5005V100.942C470.787 101.699 470.743 102.446 470.662 103.182C479.061 105.622 485.201 113.375 485.201 122.561V124.002C485.201 135.147 476.166 144.181 465.022 144.181C458.995 144.181 453.586 141.537 449.888 137.347C446.191 141.537 440.782 144.181 434.754 144.181C423.61 144.181 414.576 135.147 414.576 124.002V122.561C414.576 112.87 421.408 104.775 430.518 102.829C430.46 102.207 430.43 101.578 430.43 100.942V99.5005C430.43 88.3563 439.465 79.3218 450.609 79.3218Z" fill="#66A865"/>
<path d="M465.841 99.1656C476.581 99.1658 485.288 107.873 485.288 118.613V120.003C485.288 120.733 485.245 121.453 485.167 122.163C493.262 124.515 499.18 131.985 499.18 140.839V142.228C499.18 152.969 490.472 161.676 479.731 161.676C473.922 161.676 468.709 159.128 465.146 155.089C461.582 159.128 456.37 161.676 450.561 161.676C439.82 161.676 431.112 152.969 431.112 142.228V140.839C431.112 131.499 437.697 123.698 446.478 121.822C446.422 121.223 446.393 120.616 446.393 120.003V118.613C446.393 107.872 455.1 99.1656 465.841 99.1656Z" fill="#66A865"/>
<path d="M536.465 129.998C537.036 132.077 537.342 134.266 537.342 136.526V138.283C537.342 139.335 537.275 140.372 537.147 141.389C537.722 143.475 538.03 145.672 538.03 147.941V149.698C538.03 162.893 527.637 173.659 514.591 174.261C515.274 180.355 513.572 186.707 509.343 191.795L508.276 193.077C501.107 201.7 489.039 203.849 479.493 198.841C479.085 199.436 478.645 200.018 478.175 200.585L477.108 201.868C468.864 211.783 454.142 213.138 444.226 204.894C436.647 198.593 434.069 188.506 436.957 179.675C434.086 180.868 430.938 181.529 427.635 181.529C414.202 181.529 403.312 170.639 403.312 157.207V155.469C403.312 150.558 404.771 145.99 407.274 142.167C411.618 148.8 419.114 153.182 427.635 153.182C431.716 153.182 435.562 152.176 438.939 150.399C440.348 153.359 442.405 156.069 445.092 158.302C455.008 166.547 469.73 165.191 477.974 155.275L479.041 153.993C479.512 153.427 479.951 152.843 480.359 152.248C489.905 157.256 501.973 155.108 509.142 146.485L509.814 145.676C510.997 145.85 512.207 145.943 513.438 145.943C523.977 145.943 532.965 139.313 536.465 129.998Z" fill="#458244"/>
<path fill-rule="evenodd" clip-rule="evenodd" d="M461.644 204.397C443.541 191.363 441.34 171.778 442.607 163.229L450.786 164.441C449.847 170.774 451.505 186.909 466.475 197.687L461.644 204.397Z" fill="#714D22"/>
<path d="M466.3 118C475.265 118 482.533 125.268 482.533 134.233V135.392C482.533 136.002 482.498 136.603 482.432 137.195C489.189 139.158 494.128 145.395 494.128 152.785V153.944C494.128 162.909 486.86 170.177 477.894 170.177C473.045 170.177 468.694 168.05 465.719 164.679C462.745 168.05 458.394 170.177 453.546 170.177C444.58 170.177 437.312 162.909 437.312 153.944V152.785C437.312 144.989 442.808 138.477 450.137 136.911C450.091 136.411 450.067 135.904 450.067 135.392V134.233C450.067 125.268 457.334 118 466.3 118Z" fill="#66A865"/>
<path d="M468.018 129.716C462.974 136.941 453.028 138.709 445.803 133.665L444.869 133.014C444.378 132.671 443.913 132.303 443.473 131.917C438.089 136.258 430.285 136.73 424.329 132.572L423.394 131.92C416.17 126.876 414.401 116.93 419.445 109.705C422.173 105.797 426.335 103.486 430.725 102.986C429.683 98.6922 430.417 93.9891 433.145 90.0817C438.189 82.857 448.135 81.0888 455.36 86.1327L456.294 86.785C462.577 91.1714 464.733 99.2649 461.872 106.052C462.3 106.296 462.722 106.562 463.135 106.85L464.068 107.501C471.293 112.545 473.062 122.491 468.018 129.716Z" fill="#83C082"/>
</g>
<defs>
<clipPath id="clip0_5_6162">
<rect width="450" height="300" fill="white"/>
</clipPath>
</defs>
</svg>
